<svg width="14" height="10" viewBox="0 0 14 10" fill="none" xmlns="http://www.w3.org/2000/svg">
<path d="M6.99994 3.00429L2.1251 8.96281L2.12509 8.96282C1.98153 9.13827 1.7748 9.24985 1.54572 9.24985C1.31665 9.24985 1.10992 9.13827 0.966355 8.96282C0.823935 8.78876 0.75 8.56167 0.75 8.3329C0.75 8.10413 0.823935 7.87703 0.966355 7.70298L6.42048 1.03729C6.42051 1.03725 6.42054 1.03722 6.42057 1.03718C6.49151 0.950414 6.57846 0.878276 6.67809 0.827799C6.77804 0.777164 6.88758 0.75 6.99994 0.75C7.11229 0.75 7.22184 0.777164 7.32178 0.827799C7.42142 0.878276 7.50837 0.950415 7.57931 1.03718C7.57932 1.0372 7.57934 1.03722 7.57935 1.03724C7.57937 1.03726 7.57938 1.03727 7.57939 1.03729L13.0334 7.70287C13.0335 7.70291 13.0335 7.70294 13.0335 7.70298C13.1045 7.78962 13.1588 7.88996 13.1952 7.99733C13.2316 8.10477 13.25 8.21868 13.25 8.3329C13.25 8.44711 13.2316 8.56102 13.1952 8.66846C13.1588 8.77578 13.1045 8.87609 13.0336 8.96271C13.0335 8.96278 13.0335 8.96285 13.0334 8.96292L12.84 8.8045C12.7894 8.86648 12.7292 8.91564 12.663 8.94919C12.5968 8.98273 12.5258 9 12.4542 9C12.3825 9 12.3115 8.98273 12.2453 8.94919C12.1791 8.91564 12.1189 8.86648 12.0683 8.8045L6.99994 3.00429ZM6.99994 3.00429L11.8747 8.96271M6.99994 3.00429L11.8747 8.96271M11.8747 8.96271C11.8747 8.96274 11.8747 8.96277 11.8748 8.96281L11.8747 8.96271Z" fill="#545454" stroke="#545454" stroke-width="0.5"/>
</svg>
