<svg width="13" height="10" viewBox="0 0 13 10" fill="none" xmlns="http://www.w3.org/2000/svg">
<path d="M6.50006 6.99571L11.3749 1.03719L11.3749 1.03718C11.5185 0.86173 11.7252 0.750153 11.9543 0.750153C12.1834 0.750153 12.3901 0.86173 12.5336 1.03718C12.6761 1.21124 12.75 1.43833 12.75 1.6671C12.75 1.89587 12.6761 2.12297 12.5336 2.29702L7.07952 8.96271C7.07949 8.96275 7.07946 8.96278 7.07943 8.96282C7.00849 9.04959 6.92154 9.12172 6.82191 9.1722C6.72196 9.22284 6.61242 9.25 6.50006 9.25C6.38771 9.25 6.27816 9.22284 6.17822 9.1722C6.07858 9.12172 5.99163 9.04958 5.92069 8.96282C5.92068 8.9628 5.92066 8.96278 5.92065 8.96276C5.92063 8.96274 5.92062 8.96273 5.92061 8.96271L0.466567 2.29713C0.466538 2.29709 0.466508 2.29706 0.46648 2.29702C0.395529 2.21038 0.341241 2.11003 0.304824 2.00267C0.268381 1.89523 0.250001 1.78131 0.250001 1.6671C0.250001 1.55289 0.268381 1.43898 0.304824 1.33154C0.341227 1.22421 0.395486 1.1239 0.466394 1.03729C0.466451 1.03722 0.46651 1.03715 0.466567 1.03708L0.659964 1.1955C0.71062 1.13352 0.770775 1.08435 0.836987 1.05081C0.9032 1.01726 0.974173 0.999999 1.04585 0.999999C1.11753 0.999999 1.1885 1.01726 1.25472 1.05081C1.32093 1.08435 1.38108 1.13352 1.43174 1.1955L6.50006 6.99571ZM6.50006 6.99571L1.62531 1.03729M6.50006 6.99571L1.62531 1.03729M1.62531 1.03729C1.62528 1.03726 1.62526 1.03722 1.62523 1.03719L1.62531 1.03729Z" fill="#545454" stroke="#545454" stroke-width="0.5"/>
</svg>
