<svg width="834" height="1194" viewBox="0 0 834 1194" fill="none" xmlns="http://www.w3.org/2000/svg">
<g clip-path="url(#clip0_1408_620)">
<rect width="834" height="1194" fill="#FFF0ED"/>
<rect width="834" height="1194" fill="url(#paint0_linear_1408_620)" fill-opacity="0.2"/>
<g filter="url(#filter0_f_1408_620)">
<ellipse cx="-8" cy="272.5" rx="395" ry="386.5" fill="#FFA595"/>
</g>
<g filter="url(#filter1_f_1408_620)">
<path d="M675 109.5C675 232.936 574.936 333 451.5 333C328.064 333 228 232.936 228 109.5C228 -13.9356 328.064 -114 451.5 -114C574.936 -114 675 -13.9356 675 109.5Z" fill="#FFB0D7"/>
</g>
<g filter="url(#filter2_f_1408_620)">
<path d="M1251 428C1251 630.136 1089.6 794 890.5 794C691.401 794 530 630.136 530 428C530 225.864 691.401 62 890.5 62C1089.6 62 1251 225.864 1251 428Z" fill="#FFB0D7"/>
</g>
<circle cx="71" cy="413" r="126" fill="url(#paint1_linear_1408_620)"/>
<circle cx="912" cy="634" r="151" fill="url(#paint2_linear_1408_620)"/>
</g>
<defs>
<filter id="filter0_f_1408_620" x="-553" y="-264" width="1090" height="1073" filterUnits="userSpaceOnUse" color-interpolation-filters="sRGB">
<feFlood flood-opacity="0" result="BackgroundImageFix"/>
<feBlend mode="normal" in="SourceGraphic" in2="BackgroundImageFix" result="shape"/>
<feGaussianBlur stdDeviation="75" result="effect1_foregroundBlur_1408_620"/>
</filter>
<filter id="filter1_f_1408_620" x="78" y="-264" width="747" height="747" filterUnits="userSpaceOnUse" color-interpolation-filters="sRGB">
<feFlood flood-opacity="0" result="BackgroundImageFix"/>
<feBlend mode="normal" in="SourceGraphic" in2="BackgroundImageFix" result="shape"/>
<feGaussianBlur stdDeviation="75" result="effect1_foregroundBlur_1408_620"/>
</filter>
<filter id="filter2_f_1408_620" x="380" y="-88" width="1021" height="1032" filterUnits="userSpaceOnUse" color-interpolation-filters="sRGB">
<feFlood flood-opacity="0" result="BackgroundImageFix"/>
<feBlend mode="normal" in="SourceGraphic" in2="BackgroundImageFix" result="shape"/>
<feGaussianBlur stdDeviation="75" result="effect1_foregroundBlur_1408_620"/>
</filter>
<linearGradient id="paint0_linear_1408_620" x1="417" y1="0" x2="417" y2="1194" gradientUnits="userSpaceOnUse">
<stop stop-color="#FF775E"/>
<stop offset="1" stop-color="white" stop-opacity="0"/>
</linearGradient>
<linearGradient id="paint1_linear_1408_620" x1="6.43284" y1="287" x2="126.791" y2="518.94" gradientUnits="userSpaceOnUse">
<stop stop-color="white"/>
<stop offset="0.00520833" stop-color="#FFFEFF"/>
<stop offset="1" stop-color="#FF9ACB"/>
</linearGradient>
<linearGradient id="paint2_linear_1408_620" x1="834.622" y1="483" x2="978.861" y2="760.96" gradientUnits="userSpaceOnUse">
<stop stop-color="white"/>
<stop offset="0.00520833" stop-color="#FFFEFF"/>
<stop offset="1" stop-color="#FF9ACB"/>
</linearGradient>
<clipPath id="clip0_1408_620">
<rect width="834" height="1194" fill="white"/>
</clipPath>
</defs>
</svg>
