<svg width="393" height="852" viewBox="0 0 393 852" fill="none" xmlns="http://www.w3.org/2000/svg">
<g id="bg" clip-path="url(#clip0_1408_394)">
<g id="background">
<g id="background_2">
<rect width="393" height="852" fill="#FFF0ED"/>
<rect width="393" height="852" fill="url(#paint0_linear_1408_394)" fill-opacity="0.2"/>
</g>
<g id="gradient 2" filter="url(#filter0_f_1408_394)">
<ellipse cx="47.5" cy="46.5" rx="232.5" ry="227.5" fill="#FFA595"/>
</g>
<g id="graient 4" filter="url(#filter1_f_1408_394)">
<path d="M487 65.5C487 138.678 427.678 198 354.5 198C281.322 198 222 138.678 222 65.5C222 -7.67773 281.322 -67 354.5 -67C427.678 -67 487 -7.67773 487 65.5Z" fill="#FFB0D7"/>
</g>
<g id="graient 5" filter="url(#filter2_f_1408_394)">
<path d="M740 289.5C740 423.981 632.548 533 500 533C367.452 533 260 423.981 260 289.5C260 155.019 367.452 46 500 46C632.548 46 740 155.019 740 289.5Z" fill="#FFB0D7"/>
</g>
<circle id="bubble_left" cx="-46.5" cy="246.5" r="100.5" fill="url(#paint1_linear_1408_394)"/>
<circle id="bubble_right" cx="455.5" cy="386.5" r="100.5" fill="url(#paint2_linear_1408_394)"/>
</g>
</g>
<defs>
<filter id="filter0_f_1408_394" x="-335" y="-331" width="765" height="755" filterUnits="userSpaceOnUse" color-interpolation-filters="sRGB">
<feFlood flood-opacity="0" result="BackgroundImageFix"/>
<feBlend mode="normal" in="SourceGraphic" in2="BackgroundImageFix" result="shape"/>
<feGaussianBlur stdDeviation="75" result="effect1_foregroundBlur_1408_394"/>
</filter>
<filter id="filter1_f_1408_394" x="72" y="-217" width="565" height="565" filterUnits="userSpaceOnUse" color-interpolation-filters="sRGB">
<feFlood flood-opacity="0" result="BackgroundImageFix"/>
<feBlend mode="normal" in="SourceGraphic" in2="BackgroundImageFix" result="shape"/>
<feGaussianBlur stdDeviation="75" result="effect1_foregroundBlur_1408_394"/>
</filter>
<filter id="filter2_f_1408_394" x="110" y="-104" width="780" height="787" filterUnits="userSpaceOnUse" color-interpolation-filters="sRGB">
<feFlood flood-opacity="0" result="BackgroundImageFix"/>
<feBlend mode="normal" in="SourceGraphic" in2="BackgroundImageFix" result="shape"/>
<feGaussianBlur stdDeviation="75" result="effect1_foregroundBlur_1408_394"/>
</filter>
<linearGradient id="paint0_linear_1408_394" x1="196.5" y1="0" x2="196.5" y2="852" gradientUnits="userSpaceOnUse">
<stop stop-color="#FF775E"/>
<stop offset="1" stop-color="white" stop-opacity="0"/>
</linearGradient>
<linearGradient id="paint1_linear_1408_394" x1="-98" y1="146" x2="-2" y2="331" gradientUnits="userSpaceOnUse">
<stop stop-color="white"/>
<stop offset="0.00520833" stop-color="#FFFEFF"/>
<stop offset="1" stop-color="#FF9ACB"/>
</linearGradient>
<linearGradient id="paint2_linear_1408_394" x1="404" y1="286" x2="500" y2="471" gradientUnits="userSpaceOnUse">
<stop stop-color="white"/>
<stop offset="0.00520833" stop-color="#FFFEFF"/>
<stop offset="1" stop-color="#FF9ACB"/>
</linearGradient>
<clipPath id="clip0_1408_394">
<rect width="393" height="852" fill="white"/>
</clipPath>
</defs>
</svg>
