<svg width="36" height="36" viewBox="0 0 36 36" fill="none" xmlns="http://www.w3.org/2000/svg">
<path d="M9.63701 5.375L9.63629 5.375C9.205 5.37624 8.7813 5.48854 8.40601 5.70108C8.03072 5.91361 7.7165 6.21922 7.49361 6.58846L7.49327 6.58902L1.071 17.2919C1.07097 17.2919 1.07095 17.292 1.07093 17.292C0.942488 17.5058 0.874634 17.7506 0.874634 18C0.874634 18.2494 0.942488 18.4942 1.07093 18.708C1.07095 18.708 1.07097 18.7081 1.071 18.7081L7.49327 29.411L7.49361 29.4115C7.7165 29.7808 8.03072 30.0864 8.40601 30.2989C8.7813 30.5115 9.205 30.6238 9.63629 30.625H9.63701H30.375C31.038 30.625 31.6739 30.3616 32.1427 29.8928C32.6116 29.4239 32.875 28.788 32.875 28.125V7.875C32.875 7.21196 32.6116 6.57607 32.1427 6.10723C31.6739 5.63839 31.038 5.375 30.375 5.375L9.63701 5.375ZM14.7773 20.4022L14.7773 20.4023C14.6495 20.53 14.5482 20.6817 14.4791 20.8486C14.4099 21.0155 14.3744 21.1944 14.3744 21.375C14.3744 21.5556 14.4099 21.7345 14.4791 21.9014C14.5482 22.0683 14.6495 22.22 14.7773 22.3477C14.905 22.4755 15.0567 22.5768 15.2236 22.6459C15.3905 22.715 15.5693 22.7506 15.75 22.7506C15.9306 22.7506 16.1095 22.715 16.2764 22.6459C16.4433 22.5768 16.595 22.4755 16.7227 22.3477L16.7227 22.3477L19.125 19.9441L21.5272 22.3477L21.5273 22.3477C21.655 22.4755 21.8067 22.5768 21.9736 22.6459C22.1404 22.715 22.3193 22.7506 22.5 22.7506C22.6806 22.7506 22.8595 22.715 23.0264 22.6459C23.1933 22.5768 23.345 22.4755 23.4727 22.3477C23.6004 22.22 23.7018 22.0683 23.7709 21.9014C23.84 21.7345 23.8756 21.5557 23.8756 21.375C23.8756 21.1943 23.84 21.0155 23.7709 20.8486C23.7018 20.6817 23.6004 20.53 23.4727 20.4023L23.4726 20.4022L21.0691 18L23.4726 15.5978L23.4727 15.5977C23.6004 15.47 23.7018 15.3183 23.7709 15.1514C23.84 14.9845 23.8756 14.8057 23.8756 14.625C23.8756 14.4443 23.84 14.2655 23.7709 14.0986C23.7018 13.9317 23.6004 13.78 23.4727 13.6523C23.345 13.5245 23.1933 13.4232 23.0264 13.3541C22.8595 13.285 22.6806 13.2494 22.5 13.2494C22.3193 13.2494 22.1405 13.285 21.9736 13.3541C21.8067 13.4232 21.655 13.5245 21.5273 13.6523L21.5272 13.6523L19.125 16.0559L16.7227 13.6523L16.7227 13.6523C16.4647 13.3943 16.1148 13.2494 15.75 13.2494C15.3851 13.2494 15.0352 13.3943 14.7773 13.6523C14.5193 13.9103 14.3744 14.2602 14.3744 14.625C14.3744 14.9898 14.5193 15.3397 14.7773 15.5977L14.7773 15.5978L17.1809 18L14.7773 20.4022ZM30.125 27.875H9.77856L3.85356 18L9.77856 8.125H30.125V27.875Z" fill="url(#paint0_linear_1266_212)" stroke="#5C5C5C" stroke-width="0.5"/>
<defs>
<linearGradient id="paint0_linear_1266_212" x1="40" y1="-6" x2="4.5" y2="31" gradientUnits="userSpaceOnUse">
<stop stop-color="#323232"/>
<stop offset="1" stop-color="#666666"/>
</linearGradient>
</defs>
</svg>
