<svg width="63" height="24" viewBox="0 0 63 24" fill="none" xmlns="http://www.w3.org/2000/svg">
<path d="M42.0009 12.2508C42.0013 13.9774 41.5547 15.6747 40.7044 17.1775C39.8542 18.6803 38.6294 19.9374 37.1492 20.8264C35.669 21.7154 33.9839 22.2061 32.2578 22.2506C30.5318 22.2951 28.8236 21.892 27.2995 21.0805L24.0252 22.1719C23.7541 22.2623 23.4632 22.2754 23.185 22.2098C22.9069 22.1442 22.6525 22.0024 22.4505 21.8003C22.2484 21.5982 22.1066 21.3439 22.0409 21.0657C21.9753 20.7876 21.9884 20.4967 22.0788 20.2256L23.1703 16.9512C22.4569 15.61 22.0584 14.1238 22.0052 12.6056C21.9519 11.0873 22.2452 9.57692 22.8628 8.18896C23.4804 6.80101 24.4062 5.57199 25.5697 4.59521C26.7332 3.61843 28.1039 2.91956 29.5779 2.55164C31.0518 2.18371 32.5902 2.15642 34.0763 2.47181C35.5624 2.78721 36.9571 3.43702 38.1545 4.3719C39.3519 5.30679 40.3207 6.50219 40.9871 7.86736C41.6536 9.23253 42.0003 10.7316 42.0009 12.2508Z" fill="#999999"/>
</svg>
