<svg width="1119" height="230" viewBox="0 0 1119 230" fill="none" xmlns="http://www.w3.org/2000/svg">
<path d="M80.7991 230C67.1154 230 55.1693 227.618 44.9608 222.853C34.9695 218.089 26.6072 211.7 19.874 203.686C13.1407 195.673 8.14507 186.686 4.88704 176.723C1.62901 166.761 0 156.582 0 146.186C0 135.791 1.62901 125.612 4.88704 115.65C8.14507 105.687 13.1407 96.8079 19.874 89.0113C26.6072 80.9981 34.9695 74.6092 44.9608 69.8446C55.1693 65.08 67.1154 62.6977 80.7991 62.6977C97.7408 62.6977 112.402 66.7043 124.782 74.7175C137.163 82.7307 146.394 94.967 152.476 111.427L109.796 128.319C107.624 121.605 104.257 116.083 99.6956 111.751C95.3516 107.42 89.0527 105.254 80.7991 105.254C73.197 105.254 67.0068 107.312 62.2283 111.427C57.6671 115.325 54.3005 120.414 52.1284 126.695C50.1736 132.976 49.1962 139.473 49.1962 146.186C49.1962 152.9 50.1736 159.506 52.1284 166.003C54.3005 172.283 57.6671 177.481 62.2283 181.596C67.0068 185.494 73.197 187.443 80.7991 187.443C89.0527 187.443 95.3516 185.278 99.6956 180.946C104.257 176.615 107.624 171.092 109.796 164.379L152.476 181.271C146.394 197.731 137.163 209.967 124.782 217.98C112.402 225.993 97.7408 230 80.7991 230Z" fill="#1A1A1A"/>
<path d="M391.852 230C380.123 230 370.24 226.535 362.204 219.605C354.167 212.458 350.149 201.196 350.149 185.819V0H399.019V176.073C399.019 179.322 399.888 181.596 401.626 182.895C403.58 184.195 405.97 184.845 408.793 184.845C410.531 184.845 412.16 184.736 413.68 184.52C415.418 184.087 417.156 183.653 418.893 183.22V224.802C413.898 226.751 409.01 228.051 404.232 228.701C399.671 229.567 395.544 230 391.852 230Z" fill="#1A1A1A"/>
<path d="M496.152 230C482.034 230 470.522 227.293 461.617 221.879C452.711 216.248 446.195 208.559 442.068 198.814C437.942 189.068 435.878 177.914 435.878 165.353V66.2712H485.074V155.282C485.074 160.48 485.617 165.57 486.703 170.551C487.789 175.315 490.179 179.322 493.871 182.571C497.564 185.819 503.319 187.443 511.139 187.443C521.13 187.443 528.08 184.411 531.99 178.347C536.117 172.283 538.615 164.054 539.483 153.658C540.352 143.263 540.787 131.784 540.787 119.223V66.2712H589.983V226.427H540.787V191.342L545.674 196.864C540.461 209.426 533.402 218.089 524.497 222.853C515.809 227.618 506.36 230 496.152 230Z" fill="#1A1A1A"/>
<path d="M619.035 226.427V66.2712H668.232V103.955H661.715C664.322 93.1262 668.449 84.7881 674.096 78.9407C679.743 72.8766 686.042 68.6535 692.993 66.2712C700.16 63.8889 707.111 62.6977 713.844 62.6977C732.523 62.6977 747.076 67.8955 757.501 78.291C767.927 88.4699 773.14 102.331 773.14 119.873V226.427H723.944V138.065C723.944 126.587 721.88 118.249 717.754 113.051C713.844 107.853 707.436 105.254 698.531 105.254C691.581 105.254 685.825 106.879 681.264 110.127C676.92 113.376 673.662 118.465 671.49 125.395C669.318 132.109 668.232 140.88 668.232 151.709V226.427H619.035Z" fill="#1A1A1A"/>
<path d="M873.543 230C859.859 230 847.913 227.618 837.705 222.853C827.714 218.089 819.351 211.7 812.618 203.686C805.885 195.673 800.889 186.686 797.631 176.723C794.373 166.761 792.744 156.582 792.744 146.186C792.744 135.791 794.373 125.612 797.631 115.65C800.889 105.687 805.885 96.8079 812.618 89.0113C819.351 80.9981 827.714 74.6092 837.705 69.8446C847.913 65.08 859.859 62.6977 873.543 62.6977C890.485 62.6977 905.146 66.7043 917.527 74.7175C929.907 82.7307 939.138 94.967 945.22 111.427L902.54 128.319C900.368 121.605 897.001 116.083 892.44 111.751C888.096 107.42 881.797 105.254 873.543 105.254C865.941 105.254 859.751 107.312 854.972 111.427C850.411 115.325 847.045 120.414 844.873 126.695C842.918 132.976 841.94 139.473 841.94 146.186C841.94 152.9 842.918 159.506 844.873 166.003C847.045 172.283 850.411 177.481 854.972 181.596C859.751 185.494 865.941 187.443 873.543 187.443C881.797 187.443 888.096 185.278 892.44 180.946C897.001 176.615 900.368 171.092 902.54 164.379L945.22 181.271C939.138 197.731 929.907 209.967 917.527 217.98C905.146 225.993 890.485 230 873.543 230Z" fill="#1A1A1A"/>
<path d="M964.895 226.427V0H1014.09V103.955H1007.58C1010.18 93.1262 1014.31 84.7881 1019.96 78.9407C1025.6 72.8766 1031.9 68.6535 1038.85 66.2712C1046.02 63.8889 1052.97 62.6977 1059.7 62.6977C1078.38 62.6977 1092.94 67.8955 1103.36 78.291C1113.79 88.4699 1119 102.331 1119 119.873V226.427H1069.8V138.065C1069.8 126.587 1067.74 118.249 1063.61 113.051C1059.7 107.853 1053.3 105.254 1044.39 105.254C1033.97 105.254 1026.25 109.044 1021.26 116.624C1016.48 123.988 1014.09 135.683 1014.09 151.709V226.427H964.895Z" fill="#1A1A1A"/>
<path d="M302.971 79.8999V90.7332H313.686V101.567H324.4V144.9H313.686V155.733H302.971V166.567H292.257V177.4H281.543V188.233H270.828V199.067H260.114V209.9H238.686V199.067H227.971V188.233H217.257V177.4H206.543V166.567H195.828V155.733H185.114V144.9H174.4V101.567H185.114V90.7332H195.828V79.8999H227.971V90.7332H238.686V101.567H260.114V90.7332H270.828V79.8999H302.971Z" fill="#EE1657"/>
</svg>
