<svg width="63" height="24" viewBox="0 0 63 24" fill="none" xmlns="http://www.w3.org/2000/svg">
<path d="M41.25 11.5996V21.2C41.25 21.4122 41.1622 21.6156 41.0059 21.7657C40.8496 21.9157 40.6377 22 40.4167 22H34.5833C34.3623 22 34.1504 21.9157 33.9941 21.7657C33.8378 21.6156 33.75 21.4122 33.75 21.2V15.9998C33.75 15.8937 33.7061 15.7919 33.628 15.7169C33.5498 15.6419 33.4438 15.5998 33.3333 15.5998H29.1667C29.0562 15.5998 28.9502 15.6419 28.872 15.7169C28.7939 15.7919 28.75 15.8937 28.75 15.9998V21.2C28.75 21.4122 28.6622 21.6156 28.5059 21.7657C28.3496 21.9157 28.1377 22 27.9167 22H22.0833C21.8623 22 21.6504 21.9157 21.4941 21.7657C21.3378 21.6156 21.25 21.4122 21.25 21.2V11.5996C21.2502 11.1753 21.4259 10.7685 21.7385 10.4686L30.0719 2.46828C30.3844 2.16843 30.8082 2 31.25 2C31.6918 2 32.1156 2.16843 32.4281 2.46828L40.7615 10.4686C41.0741 10.7685 41.2498 11.1753 41.25 11.5996Z" fill="#FF4D63"/>
</svg>
