<svg width="14" height="14" viewBox="0 0 14 14" fill="none" xmlns="http://www.w3.org/2000/svg">
<path d="M0 0H14V14H0V0Z" fill="white" fill-opacity="0.01"/>
<path d="M9.91691 1.75H4.08358C2.79491 1.75 1.75024 2.79467 1.75024 4.08333V9.91667C1.75024 11.2053 2.79491 12.25 4.08358 12.25H9.91691C11.2056 12.25 12.2502 11.2053 12.2502 9.91667V4.08333C12.2502 2.79467 11.2056 1.75 9.91691 1.75Z" stroke="#B2B2B2" stroke-width="1.5" stroke-linejoin="round"/>
<path d="M7.00033 9.33366C8.289 9.33366 9.33366 8.289 9.33366 7.00033C9.33366 5.71165 8.289 4.66699 7.00033 4.66699C5.71165 4.66699 4.66699 5.71165 4.66699 7.00033C4.66699 8.289 5.71165 9.33366 7.00033 9.33366Z" stroke="#B2B2B2" stroke-width="1.5" stroke-linejoin="round"/>
<path d="M10.2083 4.37492C10.5305 4.37492 10.7917 4.11376 10.7917 3.79159C10.7917 3.46941 10.5305 3.20825 10.2083 3.20825C9.88616 3.20825 9.625 3.46941 9.625 3.79159C9.625 4.11376 9.88616 4.37492 10.2083 4.37492Z" fill="#B2B2B2"/>
</svg>
