<svg width="25" height="24" viewBox="0 0 25 24" fill="none" xmlns="http://www.w3.org/2000/svg">
<g clip-path="url(#clip0_885_169)">
<path d="M12.8721 2.25C14.9273 2.25 16.8282 2.64999 18.5747 3.44998C20.3212 4.24997 21.702 5.3378 22.7169 6.71344C23.7318 8.08903 24.2393 9.58955 24.2393 11.2149C24.2393 12.8403 23.7318 14.3429 22.7169 15.7228C21.702 17.1027 20.3233 18.1926 18.581 18.9926C16.8387 19.7925 14.9357 20.1926 12.8721 20.1926C12.2208 20.1926 11.5484 20.146 10.8549 20.0529C7.84393 22.1438 6.24123 23.202 6.0467 23.2274C5.95365 23.2613 5.86482 23.257 5.78026 23.2147C5.74641 23.1893 5.72105 23.1555 5.70413 23.1131C5.68721 23.0708 5.67877 23.0327 5.67877 22.9988V22.9481C5.72954 22.6179 6.11434 21.2423 6.83326 18.8212C5.20091 18.0085 3.90476 16.9313 2.94481 15.5895C1.98486 14.2477 1.50488 12.7895 1.50488 11.2149C1.50488 9.58955 2.01235 8.08903 3.02727 6.71344C4.0422 5.3378 5.42292 4.24997 7.16945 3.44998C8.91596 2.64999 10.8168 2.25 12.8721 2.25Z" fill="#B2B2B2"/>
</g>
<defs>
<clipPath id="clip0_885_169">
<rect width="24" height="24" fill="white" transform="translate(0.5)"/>
</clipPath>
</defs>
</svg>
