<svg width="63" height="24" viewBox="0 0 63 24" fill="none" xmlns="http://www.w3.org/2000/svg">
<path d="M41.3428 21.0151C41.4288 21.1293 41.4812 21.2653 41.4942 21.4077C41.5072 21.5501 41.4802 21.6933 41.4163 21.8212C41.3524 21.9491 41.2541 22.0567 41.1324 22.1318C41.0108 22.207 40.8706 22.2467 40.7276 22.2466H22.2691C22.1263 22.2466 21.9863 22.2068 21.8648 22.1317C21.7433 22.0566 21.6451 21.9492 21.5812 21.8214C21.5173 21.6937 21.4903 21.5507 21.5031 21.4084C21.5159 21.2662 21.5681 21.1303 21.6538 21.016C22.3348 20.103 23.243 19.3841 24.288 18.9308C23.7152 18.408 23.3138 17.7242 23.1366 16.9692C22.9594 16.2142 23.0146 15.4233 23.2949 14.7002C23.5753 13.9772 24.0677 13.3558 24.7076 12.9176C25.3474 12.4794 26.1048 12.2449 26.8804 12.2449C27.6559 12.2449 28.4133 12.4794 29.0531 12.9176C29.693 13.3558 30.1854 13.9772 30.4658 14.7002C30.7461 15.4233 30.8013 16.2142 30.6241 16.9692C30.4469 17.7242 30.0455 18.408 29.4727 18.9308C30.2266 19.2567 30.9118 19.7229 31.4916 20.3046C32.0714 19.7229 32.7566 19.2567 33.5105 18.9308C32.9377 18.408 32.5363 17.7242 32.3591 16.9692C32.1819 16.2142 32.2371 15.4233 32.5174 14.7002C32.7978 13.9772 33.2902 13.3558 33.9301 12.9176C34.5699 12.4794 35.3273 12.2449 36.1029 12.2449C36.8784 12.2449 37.6358 12.4794 38.2756 12.9176C38.9155 13.3558 39.4079 13.9772 39.6883 14.7002C39.9686 15.4233 40.0238 16.2142 39.8466 16.9692C39.6694 17.7242 39.268 18.408 38.6952 18.9308C39.7451 19.3817 40.6581 20.1004 41.3428 21.0151ZM21.8076 12.0944C21.8884 12.155 21.9804 12.1991 22.0782 12.2242C22.1761 12.2493 22.2779 12.2548 22.3779 12.2405C22.4779 12.2262 22.574 12.1924 22.661 12.1409C22.7479 12.0895 22.8238 12.0214 22.8844 11.9406C23.35 11.3197 23.9539 10.8158 24.648 10.4687C25.3422 10.1216 26.1076 9.94094 26.8837 9.94094C27.6598 9.94094 28.4253 10.1216 29.1194 10.4687C29.8136 10.8158 30.4174 11.3197 30.883 11.9406C30.9547 12.0361 31.0476 12.1137 31.1544 12.1671C31.2612 12.2205 31.3789 12.2482 31.4983 12.2482C31.6177 12.2482 31.7355 12.2205 31.8423 12.1671C31.9491 12.1137 32.042 12.0361 32.1136 11.9406C32.5793 11.3197 33.1831 10.8158 33.8773 10.4687C34.5714 10.1216 35.3369 9.94094 36.1129 9.94094C36.889 9.94094 37.6545 10.1216 38.3486 10.4687C39.0428 10.8158 39.6466 11.3197 40.1123 11.9406C40.1729 12.0214 40.2489 12.0895 40.3359 12.1409C40.4229 12.1923 40.5191 12.2261 40.6191 12.2404C40.7192 12.2546 40.821 12.249 40.9189 12.2239C41.0167 12.1988 41.1087 12.1546 41.1895 12.0939C41.2703 12.0333 41.3384 11.9573 41.3898 11.8703C41.4412 11.7834 41.475 11.6871 41.4893 11.5871C41.5035 11.4871 41.4979 11.3852 41.4728 11.2873C41.4477 11.1895 41.4035 11.0975 41.3428 11.0167C40.6618 10.1039 39.7536 9.38534 38.7087 8.93246C39.2815 8.40966 39.6828 7.72589 39.8601 6.9709C40.0373 6.2159 39.9821 5.42496 39.7017 4.70189C39.4214 3.97883 38.929 3.35742 38.2891 2.91924C37.6492 2.48106 36.8918 2.24658 36.1163 2.24658C35.3408 2.24658 34.5834 2.48106 33.9435 2.91924C33.3037 3.35742 32.8112 3.97883 32.5309 4.70189C32.2505 5.42496 32.1953 6.2159 32.3726 6.9709C32.5498 7.72589 32.9511 8.40966 33.524 8.93246C32.77 9.25834 32.0849 9.72455 31.5051 10.3063C30.9252 9.72455 30.2401 9.25834 29.4862 8.93246C30.059 8.40966 30.4603 7.72589 30.6376 6.9709C30.8148 6.2159 30.7596 5.42496 30.4792 4.70189C30.1989 3.97883 29.7065 3.35742 29.0666 2.91924C28.4267 2.48106 27.6693 2.24658 26.8938 2.24658C26.1183 2.24658 25.3609 2.48106 24.721 2.91924C24.0812 3.35742 23.5887 3.97883 23.3084 4.70189C23.028 5.42496 22.9728 6.2159 23.1501 6.9709C23.3273 7.72589 23.7286 8.40966 24.3015 8.93246C23.2516 9.38372 22.3386 10.1028 21.6538 11.0177C21.5932 11.0985 21.5491 11.1904 21.5241 11.2883C21.499 11.3861 21.4934 11.4879 21.5077 11.5879C21.522 11.6879 21.5559 11.7841 21.6073 11.871C21.6588 11.9579 21.7268 12.0338 21.8076 12.0944Z" fill="#999999"/>
</svg>
