<svg width="25" height="24" viewBox="0 0 25 24" fill="none" xmlns="http://www.w3.org/2000/svg">
<path d="M22.6474 21.6001C22.5799 21.7217 22.4827 21.8227 22.3658 21.8929C22.2488 21.9631 22.1161 22 21.981 22H3.51848C3.38352 21.9999 3.25096 21.9628 3.13412 21.8925C3.01729 21.8223 2.92029 21.7213 2.85287 21.5997C2.78544 21.4781 2.74997 21.3402 2.75 21.1999C2.75003 21.0596 2.78558 20.9217 2.85306 20.8002C4.31757 18.1675 6.57442 16.2798 9.20822 15.3849C7.90542 14.5785 6.89323 13.3497 6.32709 11.8872C5.76094 10.4247 5.67215 8.8094 6.07434 7.28936C6.47653 5.76932 7.34746 4.42858 8.5534 3.47304C9.75934 2.51751 11.2336 2 12.7498 2C14.2659 2 15.7402 2.51751 16.9461 3.47304C18.1521 4.42858 19.023 5.76932 19.4252 7.28936C19.8274 8.8094 19.7386 10.4247 19.1724 11.8872C18.6063 13.3497 17.5941 14.5785 16.2913 15.3849C18.9251 16.2798 21.182 18.1675 22.6465 20.8002C22.7141 20.9217 22.7498 21.0596 22.75 21.2C22.7502 21.3404 22.7148 21.4784 22.6474 21.6001Z" fill="#999999"/>
</svg>
