<svg width="16" height="16" viewBox="0 0 16 16" fill="none" xmlns="http://www.w3.org/2000/svg">
<path d="M4.80809 1C5.11914 1 5.40574 1.1687 5.55675 1.44068L6.60417 3.32745C6.74131 3.57449 6.74777 3.8733 6.62138 4.12603L5.61232 6.1442C5.61232 6.1442 5.90475 7.6476 7.12857 8.87142C8.35243 10.0952 9.85078 10.3826 9.85078 10.3826L11.8686 9.37373C12.1215 9.24725 12.4205 9.2538 12.6677 9.39119L14.5598 10.4432C14.8315 10.5943 15 10.8807 15 11.1916V13.3638C15 14.47 13.9725 15.269 12.9244 14.9153C10.7716 14.1889 7.43007 12.8059 5.3121 10.6879C3.19414 8.56992 1.8111 5.22834 1.08473 3.07565C0.731069 2.0275 1.53003 1 2.63622 1H4.80809Z" stroke="#ABABAB" stroke-width="1.25" stroke-linejoin="round"/>
</svg>
