<svg width="46" height="46" viewBox="0 0 46 46" fill="none" xmlns="http://www.w3.org/2000/svg">
<g filter="url(#filter0_d_3174_1334)">
<rect x="2" y="2" width="40" height="40" rx="20" fill="url(#paint0_angular_3174_1334)" shape-rendering="crispEdges"/>
<path d="M13 20.5C12.1716 20.5 11.5 21.1716 11.5 22C11.5 22.8284 12.1716 23.5 13 23.5V20.5ZM31 22L32.0345 23.0862C32.3318 22.8031 32.5 22.4105 32.5 22C32.5 21.5895 32.3318 21.1969 32.0345 20.9138L31 22ZM23.6345 12.9138C23.0346 12.3425 22.0851 12.3656 21.5138 12.9655C20.9425 13.5654 20.9656 14.5149 21.5655 15.0862L23.6345 12.9138ZM26.8 18L25.7655 19.0862L26.8 18ZM21.5655 28.9138C20.9656 29.4851 20.9425 30.4346 21.5138 31.0345C22.0851 31.6344 23.0346 31.6575 23.6345 31.0862L21.5655 28.9138ZM13 23.5C13.0137 23.5 13.0275 23.5 13.0412 23.5C13.055 23.5 13.0688 23.5 13.0826 23.5C13.0963 23.5 13.1101 23.5 13.124 23.5C13.1378 23.5 13.1516 23.5 13.1655 23.5C13.1793 23.5 13.1932 23.5 13.2071 23.5C13.2209 23.5 13.2348 23.5 13.2487 23.5C13.2626 23.5 13.2766 23.5 13.2905 23.5C13.3044 23.5 13.3184 23.5 13.3323 23.5C13.3463 23.5 13.3603 23.5 13.3743 23.5C13.3883 23.5 13.4023 23.5 13.4163 23.5C13.4303 23.5 13.4443 23.5 13.4584 23.5C13.4724 23.5 13.4865 23.5 13.5006 23.5C13.5146 23.5 13.5287 23.5 13.5428 23.5C13.5569 23.5 13.571 23.5 13.5852 23.5C13.5993 23.5 13.6134 23.5 13.6276 23.5C13.6418 23.5 13.6559 23.5 13.6701 23.5C13.6843 23.5 13.6985 23.5 13.7127 23.5C13.7269 23.5 13.7411 23.5 13.7554 23.5C13.7696 23.5 13.7838 23.5 13.7981 23.5C13.8124 23.5 13.8266 23.5 13.8409 23.5C13.8552 23.5 13.8695 23.5 13.8838 23.5C13.8981 23.5 13.9124 23.5 13.9268 23.5C13.9411 23.5 13.9555 23.5 13.9698 23.5C13.9842 23.5 13.9986 23.5 14.013 23.5C14.0273 23.5 14.0417 23.5 14.0562 23.5C14.0706 23.5 14.085 23.5 14.0994 23.5C14.1139 23.5 14.1283 23.5 14.1428 23.5C14.1572 23.5 14.1717 23.5 14.1862 23.5C14.2007 23.5 14.2152 23.5 14.2297 23.5C14.2442 23.5 14.2587 23.5 14.2732 23.5C14.2878 23.5 14.3023 23.5 14.3169 23.5C14.3314 23.5 14.346 23.5 14.3606 23.5C14.3751 23.5 14.3897 23.5 14.4043 23.5C14.4189 23.5 14.4335 23.5 14.4482 23.5C14.4628 23.5 14.4774 23.5 14.4921 23.5C14.5067 23.5 14.5214 23.5 14.536 23.5C14.5507 23.5 14.5654 23.5 14.5801 23.5C14.5948 23.5 14.6095 23.5 14.6242 23.5C14.6389 23.5 14.6536 23.5 14.6683 23.5C14.6831 23.5 14.6978 23.5 14.7126 23.5C14.7273 23.5 14.7421 23.5 14.7569 23.5C14.7716 23.5 14.7864 23.5 14.8012 23.5C14.816 23.5 14.8308 23.5 14.8457 23.5C14.8605 23.5 14.8753 23.5 14.8901 23.5C14.905 23.5 14.9198 23.5 14.9347 23.5C14.9495 23.5 14.9644 23.5 14.9793 23.5C14.9942 23.5 15.009 23.5 15.0239 23.5C15.0388 23.5 15.0537 23.5 15.0687 23.5C15.0836 23.5 15.0985 23.5 15.1134 23.5C15.1284 23.5 15.1433 23.5 15.1583 23.5C15.1732 23.5 15.1882 23.5 15.2032 23.5C15.2181 23.5 15.2331 23.5 15.2481 23.5C15.2631 23.5 15.2781 23.5 15.2931 23.5C15.3081 23.5 15.3232 23.5 15.3382 23.5C15.3532 23.5 15.3682 23.5 15.3833 23.5C15.3983 23.5 15.4134 23.5 15.4285 23.5C15.4435 23.5 15.4586 23.5 15.4737 23.5C15.4888 23.5 15.5039 23.5 15.519 23.5C15.5341 23.5 15.5492 23.5 15.5643 23.5C15.5794 23.5 15.5945 23.5 15.6097 23.5C15.6248 23.5 15.6399 23.5 15.6551 23.5C15.6702 23.5 15.6854 23.5 15.7006 23.5C15.7157 23.5 15.7309 23.5 15.7461 23.5C15.7613 23.5 15.7765 23.5 15.7917 23.5C15.8069 23.5 15.8221 23.5 15.8373 23.5C15.8525 23.5 15.8677 23.5 15.8829 23.5C15.8982 23.5 15.9134 23.5 15.9287 23.5C15.9439 23.5 15.9592 23.5 15.9744 23.5C15.9897 23.5 16.0049 23.5 16.0202 23.5C16.0355 23.5 16.0508 23.5 16.0661 23.5C16.0814 23.5 16.0966 23.5 16.112 23.5C16.1273 23.5 16.1426 23.5 16.1579 23.5C16.1732 23.5 16.1885 23.5 16.2039 23.5C16.2192 23.5 16.2345 23.5 16.2499 23.5C16.2652 23.5 16.2806 23.5 16.2959 23.5C16.3113 23.5 16.3267 23.5 16.342 23.5C16.3574 23.5 16.3728 23.5 16.3882 23.5C16.4036 23.5 16.419 23.5 16.4344 23.5C16.4498 23.5 16.4652 23.5 16.4806 23.5C16.496 23.5 16.5114 23.5 16.5268 23.5C16.5422 23.5 16.5577 23.5 16.5731 23.5C16.5885 23.5 16.604 23.5 16.6194 23.5C16.6349 23.5 16.6503 23.5 16.6658 23.5C16.6813 23.5 16.6967 23.5 16.7122 23.5C16.7277 23.5 16.7431 23.5 16.7586 23.5C16.7741 23.5 16.7896 23.5 16.8051 23.5C16.8206 23.5 16.8361 23.5 16.8516 23.5C16.8671 23.5 16.8826 23.5 16.8981 23.5C16.9136 23.5 16.9292 23.5 16.9447 23.5C16.9602 23.5 16.9757 23.5 16.9913 23.5C17.0068 23.5 17.0223 23.5 17.0379 23.5C17.0534 23.5 17.069 23.5 17.0845 23.5C17.1001 23.5 17.1157 23.5 17.1312 23.5C17.1468 23.5 17.1624 23.5 17.1779 23.5C17.1935 23.5 17.2091 23.5 17.2247 23.5C17.2402 23.5 17.2558 23.5 17.2714 23.5C17.287 23.5 17.3026 23.5 17.3182 23.5C17.3338 23.5 17.3494 23.5 17.365 23.5C17.3806 23.5 17.3963 23.5 17.4119 23.5C17.4275 23.5 17.4431 23.5 17.4587 23.5C17.4744 23.5 17.49 23.5 17.5056 23.5C17.5213 23.5 17.5369 23.5 17.5525 23.5C17.5682 23.5 17.5838 23.5 17.5995 23.5C17.6151 23.5 17.6308 23.5 17.6464 23.5C17.6621 23.5 17.6777 23.5 17.6934 23.5C17.7091 23.5 17.7247 23.5 17.7404 23.5C17.7561 23.5 17.7717 23.5 17.7874 23.5C17.8031 23.5 17.8188 23.5 17.8344 23.5C17.8501 23.5 17.8658 23.5 17.8815 23.5C17.8972 23.5 17.9129 23.5 17.9286 23.5C17.9443 23.5 17.9599 23.5 17.9756 23.5C17.9913 23.5 18.007 23.5 18.0227 23.5C18.0385 23.5 18.0542 23.5 18.0699 23.5C18.0856 23.5 18.1013 23.5 18.117 23.5C18.1327 23.5 18.1484 23.5 18.1641 23.5C18.1799 23.5 18.1956 23.5 18.2113 23.5C18.227 23.5 18.2428 23.5 18.2585 23.5C18.2742 23.5 18.2899 23.5 18.3057 23.5C18.3214 23.5 18.3371 23.5 18.3529 23.5C18.3686 23.5 18.3843 23.5 18.4001 23.5C18.4158 23.5 18.4315 23.5 18.4473 23.5C18.463 23.5 18.4788 23.5 18.4945 23.5C18.5103 23.5 18.526 23.5 18.5418 23.5C18.5575 23.5 18.5732 23.5 18.589 23.5C18.6047 23.5 18.6205 23.5 18.6362 23.5C18.652 23.5 18.6678 23.5 18.6835 23.5C18.6993 23.5 18.715 23.5 18.7308 23.5C18.7465 23.5 18.7623 23.5 18.778 23.5C18.7938 23.5 18.8096 23.5 18.8253 23.5C18.8411 23.5 18.8568 23.5 18.8726 23.5C18.8884 23.5 18.9041 23.5 18.9199 23.5C18.9356 23.5 18.9514 23.5 18.9672 23.5C18.9829 23.5 18.9987 23.5 19.0145 23.5C19.0302 23.5 19.046 23.5 19.0617 23.5C19.0775 23.5 19.0933 23.5 19.109 23.5C19.1248 23.5 19.1406 23.5 19.1563 23.5C19.1721 23.5 19.1879 23.5 19.2036 23.5C19.2194 23.5 19.2351 23.5 19.2509 23.5C19.2667 23.5 19.2824 23.5 19.2982 23.5C19.314 23.5 19.3297 23.5 19.3455 23.5C19.3612 23.5 19.377 23.5 19.3928 23.5C19.4085 23.5 19.4243 23.5 19.44 23.5C19.4558 23.5 19.4716 23.5 19.4873 23.5C19.5031 23.5 19.5188 23.5 19.5346 23.5C19.5503 23.5 19.5661 23.5 19.5819 23.5C19.5976 23.5 19.6134 23.5 19.6291 23.5C19.6449 23.5 19.6606 23.5 19.6764 23.5C19.6921 23.5 19.7079 23.5 19.7236 23.5C19.7393 23.5 19.7551 23.5 19.7708 23.5C19.7866 23.5 19.8023 23.5 19.8181 23.5C19.8338 23.5 19.8495 23.5 19.8653 23.5C19.881 23.5 19.8967 23.5 19.9125 23.5C19.9282 23.5 19.9439 23.5 19.9597 23.5C19.9754 23.5 19.9911 23.5 20.0069 23.5C20.0226 23.5 20.0383 23.5 20.054 23.5C20.0697 23.5 20.0855 23.5 20.1012 23.5C20.1169 23.5 20.1326 23.5 20.1483 23.5C20.164 23.5 20.1797 23.5 20.1954 23.5C20.2112 23.5 20.2269 23.5 20.2426 23.5C20.2583 23.5 20.274 23.5 20.2897 23.5C20.3054 23.5 20.321 23.5 20.3367 23.5C20.3524 23.5 20.3681 23.5 20.3838 23.5C20.3995 23.5 20.4152 23.5 20.4308 23.5C20.4465 23.5 20.4622 23.5 20.4779 23.5C20.4935 23.5 20.5092 23.5 20.5249 23.5C20.5405 23.5 20.5562 23.5 20.5719 23.5C20.5875 23.5 20.6032 23.5 20.6188 23.5C20.6345 23.5 20.6501 23.5 20.6658 23.5C20.6814 23.5 20.6971 23.5 20.7127 23.5C20.7283 23.5 20.744 23.5 20.7596 23.5C20.7752 23.5 20.7909 23.5 20.8065 23.5C20.8221 23.5 20.8377 23.5 20.8533 23.5C20.869 23.5 20.8846 23.5 20.9002 23.5C20.9158 23.5 20.9314 23.5 20.947 23.5C20.9626 23.5 20.9782 23.5 20.9938 23.5C21.0093 23.5 21.0249 23.5 21.0405 23.5C21.0561 23.5 21.0717 23.5 21.0872 23.5C21.1028 23.5 21.1184 23.5 21.1339 23.5C21.1495 23.5 21.1651 23.5 21.1806 23.5C21.1962 23.5 21.2117 23.5 21.2272 23.5C21.2428 23.5 21.2583 23.5 21.2739 23.5C21.2894 23.5 21.3049 23.5 21.3204 23.5C21.336 23.5 21.3515 23.5 21.367 23.5C21.3825 23.5 21.398 23.5 21.4135 23.5C21.429 23.5 21.4445 23.5 21.46 23.5C21.4755 23.5 21.491 23.5 21.5064 23.5C21.5219 23.5 21.5374 23.5 21.5529 23.5C21.5683 23.5 21.5838 23.5 21.5992 23.5C21.6147 23.5 21.6301 23.5 21.6456 23.5C21.661 23.5 21.6765 23.5 21.6919 23.5C21.7073 23.5 21.7228 23.5 21.7382 23.5C21.7536 23.5 21.769 23.5 21.7844 23.5C21.7998 23.5 21.8152 23.5 21.8306 23.5C21.846 23.5 21.8614 23.5 21.8768 23.5C21.8922 23.5 21.9075 23.5 21.9229 23.5C21.9383 23.5 21.9536 23.5 21.969 23.5C21.9843 23.5 21.9997 23.5 22.015 23.5C22.0304 23.5 22.0457 23.5 22.061 23.5C22.0764 23.5 22.0917 23.5 22.107 23.5C22.1223 23.5 22.1376 23.5 22.1529 23.5C22.1682 23.5 22.1835 23.5 22.1988 23.5C22.2141 23.5 22.2294 23.5 22.2446 23.5C22.2599 23.5 22.2752 23.5 22.2904 23.5C22.3057 23.5 22.3209 23.5 22.3362 23.5C22.3514 23.5 22.3666 23.5 22.3819 23.5C22.3971 23.5 22.4123 23.5 22.4275 23.5C22.4427 23.5 22.4579 23.5 22.4731 23.5C22.4883 23.5 22.5035 23.5 22.5187 23.5C22.5338 23.5 22.549 23.5 22.5642 23.5C22.5793 23.5 22.5945 23.5 22.6096 23.5C22.6248 23.5 22.6399 23.5 22.655 23.5C22.6702 23.5 22.6853 23.5 22.7004 23.5C22.7155 23.5 22.7306 23.5 22.7457 23.5C22.7608 23.5 22.7759 23.5 22.7909 23.5C22.806 23.5 22.8211 23.5 22.8362 23.5C22.8512 23.5 22.8663 23.5 22.8813 23.5C22.8963 23.5 22.9114 23.5 22.9264 23.5C22.9414 23.5 22.9564 23.5 22.9714 23.5C22.9864 23.5 23.0014 23.5 23.0164 23.5C23.0314 23.5 23.0464 23.5 23.0613 23.5C23.0763 23.5 23.0913 23.5 23.1062 23.5C23.1212 23.5 23.1361 23.5 23.151 23.5C23.166 23.5 23.1809 23.5 23.1958 23.5C23.2107 23.5 23.2256 23.5 23.2405 23.5C23.2554 23.5 23.2703 23.5 23.2851 23.5C23.3 23.5 23.3149 23.5 23.3297 23.5C23.3446 23.5 23.3594 23.5 23.3742 23.5C23.3891 23.5 23.4039 23.5 23.4187 23.5C23.4335 23.5 23.4483 23.5 23.4631 23.5C23.4779 23.5 23.4927 23.5 23.5074 23.5C23.5222 23.5 23.537 23.5 23.5517 23.5C23.5664 23.5 23.5812 23.5 23.5959 23.5C23.6106 23.5 23.6253 23.5 23.6401 23.5C23.6548 23.5 23.6695 23.5 23.6841 23.5C23.6988 23.5 23.7135 23.5 23.7281 23.5C23.7428 23.5 23.7575 23.5 23.7721 23.5C23.7867 23.5 23.8014 23.5 23.816 23.5C23.8306 23.5 23.8452 23.5 23.8598 23.5C23.8744 23.5 23.889 23.5 23.9035 23.5C23.9181 23.5 23.9327 23.5 23.9472 23.5C23.9617 23.5 23.9763 23.5 23.9908 23.5C24.0053 23.5 24.0198 23.5 24.0343 23.5C24.0488 23.5 24.0633 23.5 24.0778 23.5C24.0923 23.5 24.1067 23.5 24.1212 23.5C24.1356 23.5 24.1501 23.5 24.1645 23.5C24.1789 23.5 24.1934 23.5 24.2078 23.5C24.2222 23.5 24.2365 23.5 24.2509 23.5C24.2653 23.5 24.2797 23.5 24.294 23.5C24.3084 23.5 24.3227 23.5 24.337 23.5C24.3514 23.5 24.3657 23.5 24.38 23.5C24.3943 23.5 24.4086 23.5 24.4229 23.5C24.4371 23.5 24.4514 23.5 24.4657 23.5C24.4799 23.5 24.4941 23.5 24.5084 23.5C24.5226 23.5 24.5368 23.5 24.551 23.5C24.5652 23.5 24.5794 23.5 24.5936 23.5C24.6077 23.5 24.6219 23.5 24.636 23.5C24.6502 23.5 24.6643 23.5 24.6784 23.5C24.6926 23.5 24.7067 23.5 24.7208 23.5C24.7348 23.5 24.7489 23.5 24.763 23.5C24.7771 23.5 24.7911 23.5 24.8051 23.5C24.8192 23.5 24.8332 23.5 24.8472 23.5C24.8612 23.5 24.8752 23.5 24.8892 23.5C24.9032 23.5 24.9171 23.5 24.9311 23.5C24.945 23.5 24.959 23.5 24.9729 23.5C24.9868 23.5 25.0007 23.5 25.0146 23.5C25.0285 23.5 25.0424 23.5 25.0563 23.5C25.0701 23.5 25.084 23.5 25.0978 23.5C25.1117 23.5 25.1255 23.5 25.1393 23.5C25.1531 23.5 25.1669 23.5 25.1807 23.5C25.1945 23.5 25.2082 23.5 25.222 23.5C25.2357 23.5 25.2495 23.5 25.2632 23.5C25.2769 23.5 25.2906 23.5 25.3043 23.5C25.318 23.5 25.3316 23.5 25.3453 23.5C25.359 23.5 25.3726 23.5 25.3862 23.5C25.3999 23.5 25.4135 23.5 25.4271 23.5C25.4407 23.5 25.4542 23.5 25.4678 23.5C25.4814 23.5 25.4949 23.5 25.5085 23.5C25.522 23.5 25.5355 23.5 25.549 23.5C25.5625 23.5 25.576 23.5 25.5895 23.5C25.6029 23.5 25.6164 23.5 25.6298 23.5C25.6433 23.5 25.6567 23.5 25.6701 23.5C25.6835 23.5 25.6969 23.5 25.7103 23.5C25.7236 23.5 25.737 23.5 25.7503 23.5C25.7637 23.5 25.777 23.5 25.7903 23.5C25.8036 23.5 25.8169 23.5 25.8302 23.5C25.8435 23.5 25.8567 23.5 25.87 23.5C25.8832 23.5 25.8964 23.5 25.9096 23.5C25.9228 23.5 25.936 23.5 25.9492 23.5C25.9624 23.5 25.9755 23.5 25.9887 23.5C26.0018 23.5 26.0149 23.5 26.028 23.5C26.0412 23.5 26.0542 23.5 26.0673 23.5C26.0804 23.5 26.0934 23.5 26.1065 23.5C26.1195 23.5 26.1325 23.5 26.1455 23.5C26.1585 23.5 26.1715 23.5 26.1845 23.5C26.1974 23.5 26.2104 23.5 26.2233 23.5C26.2363 23.5 26.2492 23.5 26.2621 23.5C26.275 23.5 26.2878 23.5 26.3007 23.5C26.3136 23.5 26.3264 23.5 26.3392 23.5C26.352 23.5 26.3649 23.5 26.3776 23.5C26.3904 23.5 26.4032 23.5 26.4159 23.5C26.4287 23.5 26.4414 23.5 26.4541 23.5C26.4669 23.5 26.4796 23.5 26.4922 23.5C26.5049 23.5 26.5176 23.5 26.5302 23.5C26.5428 23.5 26.5555 23.5 26.5681 23.5C26.5807 23.5 26.5933 23.5 26.6058 23.5C26.6184 23.5 26.6309 23.5 26.6435 23.5C26.656 23.5 26.6685 23.5 26.681 23.5C26.6935 23.5 26.7059 23.5 26.7184 23.5C26.7308 23.5 26.7433 23.5 26.7557 23.5C26.7681 23.5 26.7805 23.5 26.7929 23.5C26.8052 23.5 26.8176 23.5 26.8299 23.5C26.8423 23.5 26.8546 23.5 26.8669 23.5C26.8792 23.5 26.8915 23.5 26.9037 23.5C26.916 23.5 26.9282 23.5 26.9404 23.5C26.9526 23.5 26.9648 23.5 26.977 23.5C26.9892 23.5 27.0013 23.5 27.0135 23.5C27.0256 23.5 27.0377 23.5 27.0498 23.5C27.0619 23.5 27.074 23.5 27.0861 23.5C27.0981 23.5 27.1102 23.5 27.1222 23.5C27.1342 23.5 27.1462 23.5 27.1582 23.5C27.1701 23.5 27.1821 23.5 27.194 23.5C27.2059 23.5 27.2179 23.5 27.2298 23.5C27.2416 23.5 27.2535 23.5 27.2654 23.5C27.2772 23.5 27.289 23.5 27.3009 23.5C27.3127 23.5 27.3245 23.5 27.3362 23.5C27.348 23.5 27.3597 23.5 27.3715 23.5C27.3832 23.5 27.3949 23.5 27.4066 23.5C27.4182 23.5 27.4299 23.5 27.4415 23.5C27.4532 23.5 27.4648 23.5 27.4764 23.5C27.488 23.5 27.4996 23.5 27.5111 23.5C27.5227 23.5 27.5342 23.5 27.5457 23.5C27.5572 23.5 27.5687 23.5 27.5802 23.5C27.5916 23.5 27.6031 23.5 27.6145 23.5C27.6259 23.5 27.6373 23.5 27.6487 23.5C27.6601 23.5 27.6714 23.5 27.6828 23.5C27.6941 23.5 27.7054 23.5 27.7167 23.5C27.728 23.5 27.7393 23.5 27.7505 23.5C27.7618 23.5 27.773 23.5 27.7842 23.5C27.7954 23.5 27.8066 23.5 27.8177 23.5C27.8289 23.5 27.84 23.5 27.8511 23.5C27.8622 23.5 27.8733 23.5 27.8844 23.5C27.8954 23.5 27.9065 23.5 27.9175 23.5C27.9285 23.5 27.9395 23.5 27.9505 23.5C27.9615 23.5 27.9724 23.5 27.9833 23.5C27.9943 23.5 28.0052 23.5 28.016 23.5C28.0269 23.5 28.0378 23.5 28.0486 23.5C28.0594 23.5 28.0702 23.5 28.081 23.5C28.0918 23.5 28.1026 23.5 28.1133 23.5C28.1241 23.5 28.1348 23.5 28.1455 23.5C28.1562 23.5 28.1668 23.5 28.1775 23.5C28.1881 23.5 28.1987 23.5 28.2093 23.5C28.2199 23.5 28.2305 23.5 28.241 23.5C28.2516 23.5 28.2621 23.5 28.2726 23.5C28.2831 23.5 28.2936 23.5 28.304 23.5C28.3145 23.5 28.3249 23.5 28.3353 23.5C28.3457 23.5 28.3561 23.5 28.3664 23.5C28.3768 23.5 28.3871 23.5 28.3974 23.5C28.4077 23.5 28.418 23.5 28.4283 23.5C28.4385 23.5 28.4488 23.5 28.459 23.5C28.4692 23.5 28.4793 23.5 28.4895 23.5C28.4997 23.5 28.5098 23.5 28.5199 23.5C28.53 23.5 28.5401 23.5 28.5501 23.5C28.5602 23.5 28.5702 23.5 28.5802 23.5C28.5902 23.5 28.6002 23.5 28.6102 23.5C28.6201 23.5 28.63 23.5 28.6399 23.5C28.6498 23.5 28.6597 23.5 28.6696 23.5C28.6794 23.5 28.6893 23.5 28.6991 23.5C28.7089 23.5 28.7186 23.5 28.7284 23.5C28.7381 23.5 28.7479 23.5 28.7575 23.5C28.7672 23.5 28.7769 23.5 28.7866 23.5C28.7962 23.5 28.8058 23.5 28.8154 23.5C28.825 23.5 28.8346 23.5 28.8441 23.5C28.8537 23.5 28.8632 23.5 28.8727 23.5C28.8821 23.5 28.8916 23.5 28.901 23.5C28.9105 23.5 28.9199 23.5 28.9293 23.5C28.9386 23.5 28.948 23.5 28.9573 23.5C28.9667 23.5 28.976 23.5 28.9852 23.5C28.9945 23.5 29.0038 23.5 29.013 23.5C29.0222 23.5 29.0314 23.5 29.0406 23.5C29.0497 23.5 29.0589 23.5 29.068 23.5C29.0771 23.5 29.0862 23.5 29.0952 23.5C29.1043 23.5 29.1133 23.5 29.1223 23.5C29.1313 23.5 29.1403 23.5 29.1493 23.5C29.1582 23.5 29.1671 23.5 29.176 23.5C29.1849 23.5 29.1938 23.5 29.2026 23.5C29.2114 23.5 29.2203 23.5 29.229 23.5C29.2378 23.5 29.2466 23.5 29.2553 23.5C29.264 23.5 29.2727 23.5 29.2814 23.5C29.2901 23.5 29.2987 23.5 29.3073 23.5C29.3159 23.5 29.3245 23.5 29.3331 23.5C29.3416 23.5 29.3502 23.5 29.3587 23.5C29.3672 23.5 29.3756 23.5 29.3841 23.5C29.3925 23.5 29.4009 23.5 29.4093 23.5C29.4177 23.5 29.4261 23.5 29.4344 23.5C29.4427 23.5 29.451 23.5 29.4593 23.5C29.4676 23.5 29.4758 23.5 29.484 23.5C29.4923 23.5 29.5004 23.5 29.5086 23.5C29.5168 23.5 29.5249 23.5 29.533 23.5C29.5411 23.5 29.5491 23.5 29.5572 23.5C29.5652 23.5 29.5732 23.5 29.5812 23.5C29.5892 23.5 29.5971 23.5 29.6051 23.5C29.613 23.5 29.6209 23.5 29.6287 23.5C29.6366 23.5 29.6444 23.5 29.6522 23.5C29.66 23.5 29.6678 23.5 29.6756 23.5C29.6833 23.5 29.691 23.5 29.6987 23.5C29.7064 23.5 29.714 23.5 29.7217 23.5C29.7293 23.5 29.7369 23.5 29.7444 23.5C29.752 23.5 29.7595 23.5 29.767 23.5C29.7745 23.5 29.782 23.5 29.7895 23.5C29.7969 23.5 29.8043 23.5 29.8117 23.5C29.8191 23.5 29.8264 23.5 29.8337 23.5C29.8411 23.5 29.8484 23.5 29.8556 23.5C29.8629 23.5 29.8701 23.5 29.8773 23.5C29.8845 23.5 29.8917 23.5 29.8988 23.5C29.9059 23.5 29.913 23.5 29.9201 23.5C29.9272 23.5 29.9342 23.5 29.9412 23.5C29.9483 23.5 29.9552 23.5 29.9622 23.5C29.9691 23.5 29.976 23.5 29.9829 23.5C29.9898 23.5 29.9967 23.5 30.0035 23.5C30.0103 23.5 30.0171 23.5 30.0239 23.5C30.0306 23.5 30.0374 23.5 30.0441 23.5C30.0508 23.5 30.0574 23.5 30.0641 23.5C30.0707 23.5 30.0773 23.5 30.0839 23.5C30.0904 23.5 30.097 23.5 30.1035 23.5C30.11 23.5 30.1164 23.5 30.1229 23.5C30.1293 23.5 30.1357 23.5 30.1421 23.5C30.1485 23.5 30.1548 23.5 30.1611 23.5C30.1675 23.5 30.1737 23.5 30.18 23.5C30.1862 23.5 30.1924 23.5 30.1986 23.5C30.2048 23.5 30.211 23.5 30.2171 23.5C30.2232 23.5 30.2293 23.5 30.2353 23.5C30.2414 23.5 30.2474 23.5 30.2534 23.5C30.2594 23.5 30.2653 23.5 30.2712 23.5C30.2771 23.5 30.283 23.5 30.2889 23.5C30.2947 23.5 30.3006 23.5 30.3063 23.5C30.3121 23.5 30.3179 23.5 30.3236 23.5C30.3293 23.5 30.335 23.5 30.3407 23.5C30.3463 23.5 30.3519 23.5 30.3575 23.5C30.3631 23.5 30.3687 23.5 30.3742 23.5C30.3797 23.5 30.3852 23.5 30.3906 23.5C30.3961 23.5 30.4015 23.5 30.4069 23.5C30.4123 23.5 30.4176 23.5 30.4229 23.5C30.4282 23.5 30.4335 23.5 30.4388 23.5C30.444 23.5 30.4492 23.5 30.4544 23.5C30.4596 23.5 30.4647 23.5 30.4698 23.5C30.4749 23.5 30.48 23.5 30.4851 23.5C30.4901 23.5 30.4951 23.5 30.5001 23.5C30.505 23.5 30.51 23.5 30.5149 23.5C30.5198 23.5 30.5246 23.5 30.5295 23.5C30.5343 23.5 30.5391 23.5 30.5439 23.5C30.5486 23.5 30.5534 23.5 30.5581 23.5C30.5627 23.5 30.5674 23.5 30.572 23.5C30.5766 23.5 30.5812 23.5 30.5858 23.5C30.5903 23.5 30.5949 23.5 30.5993 23.5C30.6038 23.5 30.6083 23.5 30.6127 23.5C30.6171 23.5 30.6215 23.5 30.6258 23.5C30.6301 23.5 30.6344 23.5 30.6387 23.5C30.643 23.5 30.6472 23.5 30.6514 23.5C30.6556 23.5 30.6598 23.5 30.6639 23.5C30.668 23.5 30.6721 23.5 30.6761 23.5C30.6802 23.5 30.6842 23.5 30.6882 23.5C30.6922 23.5 30.6961 23.5 30.7 23.5C30.7039 23.5 30.7078 23.5 30.7116 23.5C30.7155 23.5 30.7193 23.5 30.723 23.5C30.7268 23.5 30.7305 23.5 30.7342 23.5C30.7379 23.5 30.7415 23.5 30.7452 23.5C30.7488 23.5 30.7523 23.5 30.7559 23.5C30.7594 23.5 30.7629 23.5 30.7664 23.5C30.7699 23.5 30.7733 23.5 30.7767 23.5C30.7801 23.5 30.7834 23.5 30.7868 23.5C30.7901 23.5 30.7934 23.5 30.7966 23.5C30.7999 23.5 30.8031 23.5 30.8062 23.5C30.8094 23.5 30.8125 23.5 30.8156 23.5C30.8187 23.5 30.8218 23.5 30.8248 23.5C30.8278 23.5 30.8308 23.5 30.8338 23.5C30.8367 23.5 30.8396 23.5 30.8425 23.5C30.8453 23.5 30.8482 23.5 30.851 23.5C30.8538 23.5 30.8565 23.5 30.8592 23.5C30.8619 23.5 30.8646 23.5 30.8673 23.5C30.8699 23.5 30.8725 23.5 30.8751 23.5C30.8776 23.5 30.8802 23.5 30.8827 23.5C30.8851 23.5 30.8876 23.5 30.89 23.5C30.8924 23.5 30.8948 23.5 30.8971 23.5C30.8995 23.5 30.9018 23.5 30.904 23.5C30.9063 23.5 30.9085 23.5 30.9107 23.5C30.9128 23.5 30.915 23.5 30.9171 23.5C30.9192 23.5 30.9212 23.5 30.9233 23.5C30.9253 23.5 30.9273 23.5 30.9292 23.5C30.9312 23.5 30.9331 23.5 30.9349 23.5C30.9368 23.5 30.9386 23.5 30.9404 23.5C30.9422 23.5 30.944 23.5 30.9457 23.5C30.9474 23.5 30.949 23.5 30.9507 23.5C30.9523 23.5 30.9539 23.5 30.9554 23.5C30.957 23.5 30.9585 23.5 30.96 23.5C30.9614 23.5 30.9629 23.5 30.9643 23.5C30.9657 23.5 30.967 23.5 30.9683 23.5C30.9696 23.5 30.9709 23.5 30.9721 23.5C30.9734 23.5 30.9745 23.5 30.9757 23.5C30.9768 23.5 30.978 23.5 30.979 23.5C30.9801 23.5 30.9811 23.5 30.9821 23.5C30.9831 23.5 30.984 23.5 30.985 23.5C30.9859 23.5 30.9867 23.5 30.9876 23.5C30.9884 23.5 30.9892 23.5 30.9899 23.5C30.9907 23.5 30.9914 23.5 30.992 23.5C30.9927 23.5 30.9933 23.5 30.9939 23.5C30.9945 23.5 30.995 23.5 30.9955 23.5C30.996 23.5 30.9965 23.5 30.9969 23.5C30.9973 23.5 30.9977 23.5 30.998 23.5C30.9983 23.5 30.9986 23.5 30.9989 23.5C30.9991 23.5 30.9993 23.5 30.9995 23.5C30.9997 23.5 30.9998 23.5 30.9999 23.5C31 23.5 31 23.5 31 22C31 20.5 31 20.5 30.9999 20.5C30.9998 20.5 30.9997 20.5 30.9995 20.5C30.9993 20.5 30.9991 20.5 30.9989 20.5C30.9986 20.5 30.9983 20.5 30.998 20.5C30.9977 20.5 30.9973 20.5 30.9969 20.5C30.9965 20.5 30.996 20.5 30.9955 20.5C30.995 20.5 30.9945 20.5 30.9939 20.5C30.9933 20.5 30.9927 20.5 30.992 20.5C30.9914 20.5 30.9907 20.5 30.9899 20.5C30.9892 20.5 30.9884 20.5 30.9876 20.5C30.9867 20.5 30.9859 20.5 30.985 20.5C30.984 20.5 30.9831 20.5 30.9821 20.5C30.9811 20.5 30.9801 20.5 30.979 20.5C30.978 20.5 30.9768 20.5 30.9757 20.5C30.9745 20.5 30.9734 20.5 30.9721 20.5C30.9709 20.5 30.9696 20.5 30.9683 20.5C30.967 20.5 30.9657 20.5 30.9643 20.5C30.9629 20.5 30.9614 20.5 30.96 20.5C30.9585 20.5 30.957 20.5 30.9554 20.5C30.9539 20.5 30.9523 20.5 30.9507 20.5C30.949 20.5 30.9474 20.5 30.9457 20.5C30.944 20.5 30.9422 20.5 30.9404 20.5C30.9386 20.5 30.9368 20.5 30.9349 20.5C30.9331 20.5 30.9312 20.5 30.9292 20.5C30.9273 20.5 30.9253 20.5 30.9233 20.5C30.9212 20.5 30.9192 20.5 30.9171 20.5C30.915 20.5 30.9128 20.5 30.9107 20.5C30.9085 20.5 30.9063 20.5 30.904 20.5C30.9018 20.5 30.8995 20.5 30.8971 20.5C30.8948 20.5 30.8924 20.5 30.89 20.5C30.8876 20.5 30.8851 20.5 30.8827 20.5C30.8802 20.5 30.8776 20.5 30.8751 20.5C30.8725 20.5 30.8699 20.5 30.8673 20.5C30.8646 20.5 30.8619 20.5 30.8592 20.5C30.8565 20.5 30.8538 20.5 30.851 20.5C30.8482 20.5 30.8453 20.5 30.8425 20.5C30.8396 20.5 30.8367 20.5 30.8338 20.5C30.8308 20.5 30.8278 20.5 30.8248 20.5C30.8218 20.5 30.8187 20.5 30.8156 20.5C30.8125 20.5 30.8094 20.5 30.8062 20.5C30.8031 20.5 30.7999 20.5 30.7966 20.5C30.7934 20.5 30.7901 20.5 30.7868 20.5C30.7834 20.5 30.7801 20.5 30.7767 20.5C30.7733 20.5 30.7699 20.5 30.7664 20.5C30.7629 20.5 30.7594 20.5 30.7559 20.5C30.7523 20.5 30.7488 20.5 30.7452 20.5C30.7415 20.5 30.7379 20.5 30.7342 20.5C30.7305 20.5 30.7268 20.5 30.723 20.5C30.7193 20.5 30.7155 20.5 30.7116 20.5C30.7078 20.5 30.7039 20.5 30.7 20.5C30.6961 20.5 30.6922 20.5 30.6882 20.5C30.6842 20.5 30.6802 20.5 30.6761 20.5C30.6721 20.5 30.668 20.5 30.6639 20.5C30.6598 20.5 30.6556 20.5 30.6514 20.5C30.6472 20.5 30.643 20.5 30.6387 20.5C30.6344 20.5 30.6301 20.5 30.6258 20.5C30.6215 20.5 30.6171 20.5 30.6127 20.5C30.6083 20.5 30.6038 20.5 30.5993 20.5C30.5949 20.5 30.5903 20.5 30.5858 20.5C30.5812 20.5 30.5766 20.5 30.572 20.5C30.5674 20.5 30.5627 20.5 30.5581 20.5C30.5534 20.5 30.5486 20.5 30.5439 20.5C30.5391 20.5 30.5343 20.5 30.5295 20.5C30.5246 20.5 30.5198 20.5 30.5149 20.5C30.51 20.5 30.505 20.5 30.5001 20.5C30.4951 20.5 30.4901 20.5 30.4851 20.5C30.48 20.5 30.4749 20.5 30.4698 20.5C30.4647 20.5 30.4596 20.5 30.4544 20.5C30.4492 20.5 30.444 20.5 30.4388 20.5C30.4335 20.5 30.4282 20.5 30.4229 20.5C30.4176 20.5 30.4123 20.5 30.4069 20.5C30.4015 20.5 30.3961 20.5 30.3906 20.5C30.3852 20.5 30.3797 20.5 30.3742 20.5C30.3687 20.5 30.3631 20.5 30.3575 20.5C30.3519 20.5 30.3463 20.5 30.3407 20.5C30.335 20.5 30.3293 20.5 30.3236 20.5C30.3179 20.5 30.3121 20.5 30.3063 20.5C30.3006 20.5 30.2947 20.5 30.2889 20.5C30.283 20.5 30.2771 20.5 30.2712 20.5C30.2653 20.5 30.2594 20.5 30.2534 20.5C30.2474 20.5 30.2414 20.5 30.2353 20.5C30.2293 20.5 30.2232 20.5 30.2171 20.5C30.211 20.5 30.2048 20.5 30.1986 20.5C30.1924 20.5 30.1862 20.5 30.18 20.5C30.1737 20.5 30.1675 20.5 30.1611 20.5C30.1548 20.5 30.1485 20.5 30.1421 20.5C30.1357 20.5 30.1293 20.5 30.1229 20.5C30.1164 20.5 30.11 20.5 30.1035 20.5C30.097 20.5 30.0904 20.5 30.0839 20.5C30.0773 20.5 30.0707 20.5 30.0641 20.5C30.0574 20.5 30.0508 20.5 30.0441 20.5C30.0374 20.5 30.0306 20.5 30.0239 20.5C30.0171 20.5 30.0103 20.5 30.0035 20.5C29.9967 20.5 29.9898 20.5 29.9829 20.5C29.976 20.5 29.9691 20.5 29.9622 20.5C29.9552 20.5 29.9483 20.5 29.9412 20.5C29.9342 20.5 29.9272 20.5 29.9201 20.5C29.913 20.5 29.9059 20.5 29.8988 20.5C29.8917 20.5 29.8845 20.5 29.8773 20.5C29.8701 20.5 29.8629 20.5 29.8556 20.5C29.8484 20.5 29.8411 20.5 29.8337 20.5C29.8264 20.5 29.8191 20.5 29.8117 20.5C29.8043 20.5 29.7969 20.5 29.7895 20.5C29.782 20.5 29.7745 20.5 29.767 20.5C29.7595 20.5 29.752 20.5 29.7444 20.5C29.7369 20.5 29.7293 20.5 29.7217 20.5C29.714 20.5 29.7064 20.5 29.6987 20.5C29.691 20.5 29.6833 20.5 29.6756 20.5C29.6678 20.5 29.66 20.5 29.6522 20.5C29.6444 20.5 29.6366 20.5 29.6287 20.5C29.6209 20.5 29.613 20.5 29.6051 20.5C29.5971 20.5 29.5892 20.5 29.5812 20.5C29.5732 20.5 29.5652 20.5 29.5572 20.5C29.5491 20.5 29.5411 20.5 29.533 20.5C29.5249 20.5 29.5168 20.5 29.5086 20.5C29.5004 20.5 29.4923 20.5 29.484 20.5C29.4758 20.5 29.4676 20.5 29.4593 20.5C29.451 20.5 29.4427 20.5 29.4344 20.5C29.4261 20.5 29.4177 20.5 29.4093 20.5C29.4009 20.5 29.3925 20.5 29.3841 20.5C29.3756 20.5 29.3672 20.5 29.3587 20.5C29.3502 20.5 29.3416 20.5 29.3331 20.5C29.3245 20.5 29.3159 20.5 29.3073 20.5C29.2987 20.5 29.2901 20.5 29.2814 20.5C29.2727 20.5 29.264 20.5 29.2553 20.5C29.2466 20.5 29.2378 20.5 29.229 20.5C29.2203 20.5 29.2114 20.5 29.2026 20.5C29.1938 20.5 29.1849 20.5 29.176 20.5C29.1671 20.5 29.1582 20.5 29.1493 20.5C29.1403 20.5 29.1313 20.5 29.1223 20.5C29.1133 20.5 29.1043 20.5 29.0952 20.5C29.0862 20.5 29.0771 20.5 29.068 20.5C29.0589 20.5 29.0497 20.5 29.0406 20.5C29.0314 20.5 29.0222 20.5 29.013 20.5C29.0038 20.5 28.9945 20.5 28.9852 20.5C28.976 20.5 28.9667 20.5 28.9573 20.5C28.948 20.5 28.9386 20.5 28.9293 20.5C28.9199 20.5 28.9105 20.5 28.901 20.5C28.8916 20.5 28.8821 20.5 28.8727 20.5C28.8632 20.5 28.8537 20.5 28.8441 20.5C28.8346 20.5 28.825 20.5 28.8154 20.5C28.8058 20.5 28.7962 20.5 28.7866 20.5C28.7769 20.5 28.7672 20.5 28.7575 20.5C28.7479 20.5 28.7381 20.5 28.7284 20.5C28.7186 20.5 28.7089 20.5 28.6991 20.5C28.6893 20.5 28.6794 20.5 28.6696 20.5C28.6597 20.5 28.6498 20.5 28.6399 20.5C28.63 20.5 28.6201 20.5 28.6102 20.5C28.6002 20.5 28.5902 20.5 28.5802 20.5C28.5702 20.5 28.5602 20.5 28.5501 20.5C28.5401 20.5 28.53 20.5 28.5199 20.5C28.5098 20.5 28.4997 20.5 28.4895 20.5C28.4793 20.5 28.4692 20.5 28.459 20.5C28.4488 20.5 28.4385 20.5 28.4283 20.5C28.418 20.5 28.4077 20.5 28.3974 20.5C28.3871 20.5 28.3768 20.5 28.3664 20.5C28.3561 20.5 28.3457 20.5 28.3353 20.5C28.3249 20.5 28.3145 20.5 28.304 20.5C28.2936 20.5 28.2831 20.5 28.2726 20.5C28.2621 20.5 28.2516 20.5 28.241 20.5C28.2305 20.5 28.2199 20.5 28.2093 20.5C28.1987 20.5 28.1881 20.5 28.1775 20.5C28.1668 20.5 28.1562 20.5 28.1455 20.5C28.1348 20.5 28.1241 20.5 28.1133 20.5C28.1026 20.5 28.0918 20.5 28.081 20.5C28.0702 20.5 28.0594 20.5 28.0486 20.5C28.0378 20.5 28.0269 20.5 28.016 20.5C28.0052 20.5 27.9943 20.5 27.9833 20.5C27.9724 20.5 27.9615 20.5 27.9505 20.5C27.9395 20.5 27.9285 20.5 27.9175 20.5C27.9065 20.5 27.8954 20.5 27.8844 20.5C27.8733 20.5 27.8622 20.5 27.8511 20.5C27.84 20.5 27.8289 20.5 27.8177 20.5C27.8066 20.5 27.7954 20.5 27.7842 20.5C27.773 20.5 27.7618 20.5 27.7505 20.5C27.7393 20.5 27.728 20.5 27.7167 20.5C27.7054 20.5 27.6941 20.5 27.6828 20.5C27.6714 20.5 27.6601 20.5 27.6487 20.5C27.6373 20.5 27.6259 20.5 27.6145 20.5C27.6031 20.5 27.5916 20.5 27.5802 20.5C27.5687 20.5 27.5572 20.5 27.5457 20.5C27.5342 20.5 27.5227 20.5 27.5111 20.5C27.4996 20.5 27.488 20.5 27.4764 20.5C27.4648 20.5 27.4532 20.5 27.4415 20.5C27.4299 20.5 27.4182 20.5 27.4066 20.5C27.3949 20.5 27.3832 20.5 27.3715 20.5C27.3597 20.5 27.348 20.5 27.3362 20.5C27.3245 20.5 27.3127 20.5 27.3009 20.5C27.289 20.5 27.2772 20.5 27.2654 20.5C27.2535 20.5 27.2416 20.5 27.2298 20.5C27.2179 20.5 27.2059 20.5 27.194 20.5C27.1821 20.5 27.1701 20.5 27.1582 20.5C27.1462 20.5 27.1342 20.5 27.1222 20.5C27.1102 20.5 27.0981 20.5 27.0861 20.5C27.074 20.5 27.0619 20.5 27.0498 20.5C27.0377 20.5 27.0256 20.5 27.0135 20.5C27.0013 20.5 26.9892 20.5 26.977 20.5C26.9648 20.5 26.9526 20.5 26.9404 20.5C26.9282 20.5 26.916 20.5 26.9037 20.5C26.8915 20.5 26.8792 20.5 26.8669 20.5C26.8546 20.5 26.8423 20.5 26.8299 20.5C26.8176 20.5 26.8052 20.5 26.7929 20.5C26.7805 20.5 26.7681 20.5 26.7557 20.5C26.7433 20.5 26.7308 20.5 26.7184 20.5C26.7059 20.5 26.6935 20.5 26.681 20.5C26.6685 20.5 26.656 20.5 26.6435 20.5C26.6309 20.5 26.6184 20.5 26.6058 20.5C26.5933 20.5 26.5807 20.5 26.5681 20.5C26.5555 20.5 26.5428 20.5 26.5302 20.5C26.5176 20.5 26.5049 20.5 26.4922 20.5C26.4796 20.5 26.4669 20.5 26.4541 20.5C26.4414 20.5 26.4287 20.5 26.4159 20.5C26.4032 20.5 26.3904 20.5 26.3776 20.5C26.3649 20.5 26.352 20.5 26.3392 20.5C26.3264 20.5 26.3136 20.5 26.3007 20.5C26.2878 20.5 26.275 20.5 26.2621 20.5C26.2492 20.5 26.2363 20.5 26.2233 20.5C26.2104 20.5 26.1974 20.5 26.1845 20.5C26.1715 20.5 26.1585 20.5 26.1455 20.5C26.1325 20.5 26.1195 20.5 26.1065 20.5C26.0934 20.5 26.0804 20.5 26.0673 20.5C26.0542 20.5 26.0412 20.5 26.028 20.5C26.0149 20.5 26.0018 20.5 25.9887 20.5C25.9755 20.5 25.9624 20.5 25.9492 20.5C25.936 20.5 25.9228 20.5 25.9096 20.5C25.8964 20.5 25.8832 20.5 25.87 20.5C25.8567 20.5 25.8435 20.5 25.8302 20.5C25.8169 20.5 25.8036 20.5 25.7903 20.5C25.777 20.5 25.7637 20.5 25.7503 20.5C25.737 20.5 25.7236 20.5 25.7103 20.5C25.6969 20.5 25.6835 20.5 25.6701 20.5C25.6567 20.5 25.6433 20.5 25.6298 20.5C25.6164 20.5 25.6029 20.5 25.5895 20.5C25.576 20.5 25.5625 20.5 25.549 20.5C25.5355 20.5 25.522 20.5 25.5085 20.5C25.4949 20.5 25.4814 20.5 25.4678 20.5C25.4542 20.5 25.4407 20.5 25.4271 20.5C25.4135 20.5 25.3999 20.5 25.3862 20.5C25.3726 20.5 25.359 20.5 25.3453 20.5C25.3316 20.5 25.318 20.5 25.3043 20.5C25.2906 20.5 25.2769 20.5 25.2632 20.5C25.2495 20.5 25.2357 20.5 25.222 20.5C25.2082 20.5 25.1945 20.5 25.1807 20.5C25.1669 20.5 25.1531 20.5 25.1393 20.5C25.1255 20.5 25.1117 20.5 25.0978 20.5C25.084 20.5 25.0701 20.5 25.0563 20.5C25.0424 20.5 25.0285 20.5 25.0146 20.5C25.0007 20.5 24.9868 20.5 24.9729 20.5C24.959 20.5 24.945 20.5 24.9311 20.5C24.9171 20.5 24.9032 20.5 24.8892 20.5C24.8752 20.5 24.8612 20.5 24.8472 20.5C24.8332 20.5 24.8192 20.5 24.8051 20.5C24.7911 20.5 24.7771 20.5 24.763 20.5C24.7489 20.5 24.7348 20.5 24.7208 20.5C24.7067 20.5 24.6926 20.5 24.6784 20.5C24.6643 20.5 24.6502 20.5 24.636 20.5C24.6219 20.5 24.6077 20.5 24.5936 20.5C24.5794 20.5 24.5652 20.5 24.551 20.5C24.5368 20.5 24.5226 20.5 24.5084 20.5C24.4941 20.5 24.4799 20.5 24.4657 20.5C24.4514 20.5 24.4371 20.5 24.4229 20.5C24.4086 20.5 24.3943 20.5 24.38 20.5C24.3657 20.5 24.3514 20.5 24.337 20.5C24.3227 20.5 24.3084 20.5 24.294 20.5C24.2797 20.5 24.2653 20.5 24.2509 20.5C24.2365 20.5 24.2222 20.5 24.2078 20.5C24.1934 20.5 24.1789 20.5 24.1645 20.5C24.1501 20.5 24.1356 20.5 24.1212 20.5C24.1067 20.5 24.0923 20.5 24.0778 20.5C24.0633 20.5 24.0488 20.5 24.0343 20.5C24.0198 20.5 24.0053 20.5 23.9908 20.5C23.9763 20.5 23.9617 20.5 23.9472 20.5C23.9327 20.5 23.9181 20.5 23.9035 20.5C23.889 20.5 23.8744 20.5 23.8598 20.5C23.8452 20.5 23.8306 20.5 23.816 20.5C23.8014 20.5 23.7867 20.5 23.7721 20.5C23.7575 20.5 23.7428 20.5 23.7281 20.5C23.7135 20.5 23.6988 20.5 23.6841 20.5C23.6695 20.5 23.6548 20.5 23.6401 20.5C23.6253 20.5 23.6106 20.5 23.5959 20.5C23.5812 20.5 23.5664 20.5 23.5517 20.5C23.537 20.5 23.5222 20.5 23.5074 20.5C23.4927 20.5 23.4779 20.5 23.4631 20.5C23.4483 20.5 23.4335 20.5 23.4187 20.5C23.4039 20.5 23.3891 20.5 23.3742 20.5C23.3594 20.5 23.3446 20.5 23.3297 20.5C23.3149 20.5 23.3 20.5 23.2851 20.5C23.2703 20.5 23.2554 20.5 23.2405 20.5C23.2256 20.5 23.2107 20.5 23.1958 20.5C23.1809 20.5 23.166 20.5 23.151 20.5C23.1361 20.5 23.1212 20.5 23.1062 20.5C23.0913 20.5 23.0763 20.5 23.0613 20.5C23.0464 20.5 23.0314 20.5 23.0164 20.5C23.0014 20.5 22.9864 20.5 22.9714 20.5C22.9564 20.5 22.9414 20.5 22.9264 20.5C22.9114 20.5 22.8963 20.5 22.8813 20.5C22.8663 20.5 22.8512 20.5 22.8362 20.5C22.8211 20.5 22.806 20.5 22.7909 20.5C22.7759 20.5 22.7608 20.5 22.7457 20.5C22.7306 20.5 22.7155 20.5 22.7004 20.5C22.6853 20.5 22.6702 20.5 22.655 20.5C22.6399 20.5 22.6248 20.5 22.6096 20.5C22.5945 20.5 22.5793 20.5 22.5642 20.5C22.549 20.5 22.5338 20.5 22.5187 20.5C22.5035 20.5 22.4883 20.5 22.4731 20.5C22.4579 20.5 22.4427 20.5 22.4275 20.5C22.4123 20.5 22.3971 20.5 22.3819 20.5C22.3666 20.5 22.3514 20.5 22.3362 20.5C22.3209 20.5 22.3057 20.5 22.2904 20.5C22.2752 20.5 22.2599 20.5 22.2446 20.5C22.2294 20.5 22.2141 20.5 22.1988 20.5C22.1835 20.5 22.1682 20.5 22.1529 20.5C22.1376 20.5 22.1223 20.5 22.107 20.5C22.0917 20.5 22.0764 20.5 22.061 20.5C22.0457 20.5 22.0304 20.5 22.015 20.5C21.9997 20.5 21.9843 20.5 21.969 20.5C21.9536 20.5 21.9383 20.5 21.9229 20.5C21.9075 20.5 21.8922 20.5 21.8768 20.5C21.8614 20.5 21.846 20.5 21.8306 20.5C21.8152 20.5 21.7998 20.5 21.7844 20.5C21.769 20.5 21.7536 20.5 21.7382 20.5C21.7228 20.5 21.7073 20.5 21.6919 20.5C21.6765 20.5 21.661 20.5 21.6456 20.5C21.6301 20.5 21.6147 20.5 21.5992 20.5C21.5838 20.5 21.5683 20.5 21.5529 20.5C21.5374 20.5 21.5219 20.5 21.5064 20.5C21.491 20.5 21.4755 20.5 21.46 20.5C21.4445 20.5 21.429 20.5 21.4135 20.5C21.398 20.5 21.3825 20.5 21.367 20.5C21.3515 20.5 21.336 20.5 21.3204 20.5C21.3049 20.5 21.2894 20.5 21.2739 20.5C21.2583 20.5 21.2428 20.5 21.2272 20.5C21.2117 20.5 21.1962 20.5 21.1806 20.5C21.1651 20.5 21.1495 20.5 21.1339 20.5C21.1184 20.5 21.1028 20.5 21.0872 20.5C21.0717 20.5 21.0561 20.5 21.0405 20.5C21.0249 20.5 21.0093 20.5 20.9938 20.5C20.9782 20.5 20.9626 20.5 20.947 20.5C20.9314 20.5 20.9158 20.5 20.9002 20.5C20.8846 20.5 20.869 20.5 20.8533 20.5C20.8377 20.5 20.8221 20.5 20.8065 20.5C20.7909 20.5 20.7752 20.5 20.7596 20.5C20.744 20.5 20.7283 20.5 20.7127 20.5C20.6971 20.5 20.6814 20.5 20.6658 20.5C20.6501 20.5 20.6345 20.5 20.6188 20.5C20.6032 20.5 20.5875 20.5 20.5719 20.5C20.5562 20.5 20.5405 20.5 20.5249 20.5C20.5092 20.5 20.4935 20.5 20.4779 20.5C20.4622 20.5 20.4465 20.5 20.4308 20.5C20.4152 20.5 20.3995 20.5 20.3838 20.5C20.3681 20.5 20.3524 20.5 20.3367 20.5C20.321 20.5 20.3054 20.5 20.2897 20.5C20.274 20.5 20.2583 20.5 20.2426 20.5C20.2269 20.5 20.2112 20.5 20.1954 20.5C20.1797 20.5 20.164 20.5 20.1483 20.5C20.1326 20.5 20.1169 20.5 20.1012 20.5C20.0855 20.5 20.0697 20.5 20.054 20.5C20.0383 20.5 20.0226 20.5 20.0069 20.5C19.9911 20.5 19.9754 20.5 19.9597 20.5C19.9439 20.5 19.9282 20.5 19.9125 20.5C19.8967 20.5 19.881 20.5 19.8653 20.5C19.8495 20.5 19.8338 20.5 19.8181 20.5C19.8023 20.5 19.7866 20.5 19.7708 20.5C19.7551 20.5 19.7393 20.5 19.7236 20.5C19.7079 20.5 19.6921 20.5 19.6764 20.5C19.6606 20.5 19.6449 20.5 19.6291 20.5C19.6134 20.5 19.5976 20.5 19.5819 20.5C19.5661 20.5 19.5503 20.5 19.5346 20.5C19.5188 20.5 19.5031 20.5 19.4873 20.5C19.4716 20.5 19.4558 20.5 19.44 20.5C19.4243 20.5 19.4085 20.5 19.3928 20.5C19.377 20.5 19.3612 20.5 19.3455 20.5C19.3297 20.5 19.314 20.5 19.2982 20.5C19.2824 20.5 19.2667 20.5 19.2509 20.5C19.2351 20.5 19.2194 20.5 19.2036 20.5C19.1879 20.5 19.1721 20.5 19.1563 20.5C19.1406 20.5 19.1248 20.5 19.109 20.5C19.0933 20.5 19.0775 20.5 19.0617 20.5C19.046 20.5 19.0302 20.5 19.0145 20.5C18.9987 20.5 18.9829 20.5 18.9672 20.5C18.9514 20.5 18.9356 20.5 18.9199 20.5C18.9041 20.5 18.8884 20.5 18.8726 20.5C18.8568 20.5 18.8411 20.5 18.8253 20.5C18.8096 20.5 18.7938 20.5 18.778 20.5C18.7623 20.5 18.7465 20.5 18.7308 20.5C18.715 20.5 18.6993 20.5 18.6835 20.5C18.6678 20.5 18.652 20.5 18.6362 20.5C18.6205 20.5 18.6047 20.5 18.589 20.5C18.5732 20.5 18.5575 20.5 18.5418 20.5C18.526 20.5 18.5103 20.5 18.4945 20.5C18.4788 20.5 18.463 20.5 18.4473 20.5C18.4315 20.5 18.4158 20.5 18.4001 20.5C18.3843 20.5 18.3686 20.5 18.3529 20.5C18.3371 20.5 18.3214 20.5 18.3057 20.5C18.2899 20.5 18.2742 20.5 18.2585 20.5C18.2428 20.5 18.227 20.5 18.2113 20.5C18.1956 20.5 18.1799 20.5 18.1641 20.5C18.1484 20.5 18.1327 20.5 18.117 20.5C18.1013 20.5 18.0856 20.5 18.0699 20.5C18.0542 20.5 18.0385 20.5 18.0227 20.5C18.007 20.5 17.9913 20.5 17.9756 20.5C17.9599 20.5 17.9443 20.5 17.9286 20.5C17.9129 20.5 17.8972 20.5 17.8815 20.5C17.8658 20.5 17.8501 20.5 17.8344 20.5C17.8188 20.5 17.8031 20.5 17.7874 20.5C17.7717 20.5 17.7561 20.5 17.7404 20.5C17.7247 20.5 17.7091 20.5 17.6934 20.5C17.6777 20.5 17.6621 20.5 17.6464 20.5C17.6308 20.5 17.6151 20.5 17.5995 20.5C17.5838 20.5 17.5682 20.5 17.5525 20.5C17.5369 20.5 17.5213 20.5 17.5056 20.5C17.49 20.5 17.4744 20.5 17.4587 20.5C17.4431 20.5 17.4275 20.5 17.4119 20.5C17.3963 20.5 17.3806 20.5 17.365 20.5C17.3494 20.5 17.3338 20.5 17.3182 20.5C17.3026 20.5 17.287 20.5 17.2714 20.5C17.2558 20.5 17.2402 20.5 17.2247 20.5C17.2091 20.5 17.1935 20.5 17.1779 20.5C17.1624 20.5 17.1468 20.5 17.1312 20.5C17.1157 20.5 17.1001 20.5 17.0845 20.5C17.069 20.5 17.0534 20.5 17.0379 20.5C17.0223 20.5 17.0068 20.5 16.9913 20.5C16.9757 20.5 16.9602 20.5 16.9447 20.5C16.9292 20.5 16.9136 20.5 16.8981 20.5C16.8826 20.5 16.8671 20.5 16.8516 20.5C16.8361 20.5 16.8206 20.5 16.8051 20.5C16.7896 20.5 16.7741 20.5 16.7586 20.5C16.7431 20.5 16.7277 20.5 16.7122 20.5C16.6967 20.5 16.6813 20.5 16.6658 20.5C16.6503 20.5 16.6349 20.5 16.6194 20.5C16.604 20.5 16.5885 20.5 16.5731 20.5C16.5577 20.5 16.5422 20.5 16.5268 20.5C16.5114 20.5 16.496 20.5 16.4806 20.5C16.4652 20.5 16.4498 20.5 16.4344 20.5C16.419 20.5 16.4036 20.5 16.3882 20.5C16.3728 20.5 16.3574 20.5 16.342 20.5C16.3267 20.5 16.3113 20.5 16.2959 20.5C16.2806 20.5 16.2652 20.5 16.2499 20.5C16.2345 20.5 16.2192 20.5 16.2039 20.5C16.1885 20.5 16.1732 20.5 16.1579 20.5C16.1426 20.5 16.1273 20.5 16.112 20.5C16.0966 20.5 16.0814 20.5 16.0661 20.5C16.0508 20.5 16.0355 20.5 16.0202 20.5C16.0049 20.5 15.9897 20.5 15.9744 20.5C15.9592 20.5 15.9439 20.5 15.9287 20.5C15.9134 20.5 15.8982 20.5 15.8829 20.5C15.8677 20.5 15.8525 20.5 15.8373 20.5C15.8221 20.5 15.8069 20.5 15.7917 20.5C15.7765 20.5 15.7613 20.5 15.7461 20.5C15.7309 20.5 15.7157 20.5 15.7006 20.5C15.6854 20.5 15.6702 20.5 15.6551 20.5C15.6399 20.5 15.6248 20.5 15.6097 20.5C15.5945 20.5 15.5794 20.5 15.5643 20.5C15.5492 20.5 15.5341 20.5 15.519 20.5C15.5039 20.5 15.4888 20.5 15.4737 20.5C15.4586 20.5 15.4435 20.5 15.4285 20.5C15.4134 20.5 15.3983 20.5 15.3833 20.5C15.3682 20.5 15.3532 20.5 15.3382 20.5C15.3232 20.5 15.3081 20.5 15.2931 20.5C15.2781 20.5 15.2631 20.5 15.2481 20.5C15.2331 20.5 15.2181 20.5 15.2032 20.5C15.1882 20.5 15.1732 20.5 15.1583 20.5C15.1433 20.5 15.1284 20.5 15.1134 20.5C15.0985 20.5 15.0836 20.5 15.0687 20.5C15.0537 20.5 15.0388 20.5 15.0239 20.5C15.009 20.5 14.9942 20.5 14.9793 20.5C14.9644 20.5 14.9495 20.5 14.9347 20.5C14.9198 20.5 14.905 20.5 14.8901 20.5C14.8753 20.5 14.8605 20.5 14.8457 20.5C14.8308 20.5 14.816 20.5 14.8012 20.5C14.7864 20.5 14.7716 20.5 14.7569 20.5C14.7421 20.5 14.7273 20.5 14.7126 20.5C14.6978 20.5 14.6831 20.5 14.6683 20.5C14.6536 20.5 14.6389 20.5 14.6242 20.5C14.6095 20.5 14.5948 20.5 14.5801 20.5C14.5654 20.5 14.5507 20.5 14.536 20.5C14.5214 20.5 14.5067 20.5 14.4921 20.5C14.4774 20.5 14.4628 20.5 14.4482 20.5C14.4335 20.5 14.4189 20.5 14.4043 20.5C14.3897 20.5 14.3751 20.5 14.3606 20.5C14.346 20.5 14.3314 20.5 14.3169 20.5C14.3023 20.5 14.2878 20.5 14.2732 20.5C14.2587 20.5 14.2442 20.5 14.2297 20.5C14.2152 20.5 14.2007 20.5 14.1862 20.5C14.1717 20.5 14.1572 20.5 14.1428 20.5C14.1283 20.5 14.1139 20.5 14.0994 20.5C14.085 20.5 14.0706 20.5 14.0562 20.5C14.0417 20.5 14.0273 20.5 14.013 20.5C13.9986 20.5 13.9842 20.5 13.9698 20.5C13.9555 20.5 13.9411 20.5 13.9268 20.5C13.9124 20.5 13.8981 20.5 13.8838 20.5C13.8695 20.5 13.8552 20.5 13.8409 20.5C13.8266 20.5 13.8124 20.5 13.7981 20.5C13.7838 20.5 13.7696 20.5 13.7554 20.5C13.7411 20.5 13.7269 20.5 13.7127 20.5C13.6985 20.5 13.6843 20.5 13.6701 20.5C13.6559 20.5 13.6418 20.5 13.6276 20.5C13.6134 20.5 13.5993 20.5 13.5852 20.5C13.571 20.5 13.5569 20.5 13.5428 20.5C13.5287 20.5 13.5146 20.5 13.5006 20.5C13.4865 20.5 13.4724 20.5 13.4584 20.5C13.4443 20.5 13.4303 20.5 13.4163 20.5C13.4023 20.5 13.3883 20.5 13.3743 20.5C13.3603 20.5 13.3463 20.5 13.3323 20.5C13.3184 20.5 13.3044 20.5 13.2905 20.5C13.2766 20.5 13.2626 20.5 13.2487 20.5C13.2348 20.5 13.2209 20.5 13.2071 20.5C13.1932 20.5 13.1793 20.5 13.1655 20.5C13.1516 20.5 13.1378 20.5 13.124 20.5C13.1101 20.5 13.0963 20.5 13.0826 20.5C13.0688 20.5 13.055 20.5 13.0412 20.5C13.0275 20.5 13.0137 20.5 13 20.5V23.5ZM32.0345 20.9138L27.8345 16.9138L25.7655 19.0862L29.9655 23.0862L32.0345 20.9138ZM26.8 18C27.8345 16.9138 27.8345 16.9138 27.8345 16.9138C27.8344 16.9137 27.8344 16.9137 27.8344 16.9137C27.8343 16.9136 27.8343 16.9136 27.8342 16.9135C27.8342 16.9135 27.8341 16.9134 27.834 16.9133C27.8337 16.9131 27.8332 16.9126 27.8326 16.912C27.8314 16.9109 27.8295 16.9091 27.8271 16.9068C27.8222 16.9021 27.8149 16.8952 27.8053 16.886C27.7862 16.8678 27.7579 16.8409 27.7213 16.806C27.6481 16.7363 27.5417 16.6349 27.4089 16.5085C27.1433 16.2555 26.772 15.9019 26.3496 15.4996C25.5046 14.6948 24.4546 13.6948 23.6345 12.9138L21.5655 15.0862C22.3856 15.8673 23.4356 16.8673 24.2806 17.672C24.7031 18.0744 25.0743 18.4279 25.3399 18.6809C25.4727 18.8074 25.5791 18.9087 25.6523 18.9784C25.6889 19.0133 25.7172 19.0402 25.7364 19.0584C25.7459 19.0676 25.7532 19.0745 25.7581 19.0792C25.7606 19.0815 25.7624 19.0833 25.7637 19.0844C25.7643 19.085 25.7647 19.0855 25.765 19.0858C25.7654 19.0861 25.7651 19.0859 25.7654 19.0861C25.7654 19.0861 25.7655 19.0862 25.7655 19.0862C25.7655 19.0862 25.7655 19.0862 26.8 18ZM23.6345 31.0862C25.2747 29.5241 27.3747 27.5241 29.0646 25.9146C29.9096 25.1099 30.6521 24.4028 31.1833 23.8969C31.4489 23.6439 31.6617 23.4412 31.8081 23.3018C31.8813 23.2321 31.9379 23.1782 31.9762 23.1417C31.9953 23.1235 32.0099 23.1096 32.0197 23.1003C32.0246 23.0956 32.0283 23.0921 32.0308 23.0898C32.0319 23.0886 32.033 23.0876 32.0335 23.0871C32.0338 23.0868 32.0341 23.0865 32.0342 23.0864C32.0343 23.0864 32.0344 23.0863 32.0344 23.0863C32.0345 23.0862 32.0345 23.0862 31 22C29.9655 20.9138 29.9655 20.9138 29.9655 20.9138C29.9654 20.9139 29.9654 20.9139 29.9653 20.914C29.9652 20.9141 29.9651 20.9142 29.965 20.9143C29.9649 20.9144 29.9647 20.9145 29.9646 20.9147C29.964 20.9152 29.963 20.9162 29.9618 20.9173C29.9593 20.9197 29.9557 20.9232 29.9507 20.9279C29.9409 20.9372 29.9264 20.9511 29.9072 20.9693C29.8689 21.0058 29.8123 21.0597 29.7391 21.1294C29.5927 21.2688 29.3799 21.4715 29.1143 21.7245C28.5831 22.2304 27.8406 22.9375 26.9957 23.7422C25.3057 25.3517 23.2057 27.3517 21.5655 28.9138L23.6345 31.0862Z" fill="white"/>
</g>
<defs>
<filter id="filter0_d_3174_1334" x="0" y="0" width="46" height="46" filterUnits="userSpaceOnUse" color-interpolation-filters="sRGB">
<feFlood flood-opacity="0" result="BackgroundImageFix"/>
<feColorMatrix in="SourceAlpha" type="matrix" values="0 0 0 0 0 0 0 0 0 0 0 0 0 0 0 0 0 0 127 0" result="hardAlpha"/>
<feOffset dx="1" dy="1"/>
<feGaussianBlur stdDeviation="1.5"/>
<feComposite in2="hardAlpha" operator="out"/>
<feColorMatrix type="matrix" values="0 0 0 0 0 0 0 0 0 0 0 0 0 0 0 0 0 0 0.2 0"/>
<feBlend mode="normal" in2="BackgroundImageFix" result="effect1_dropShadow_3174_1334"/>
<feBlend mode="normal" in="SourceGraphic" in2="effect1_dropShadow_3174_1334" result="shape"/>
</filter>
<radialGradient id="paint0_angular_3174_1334" cx="0" cy="0" r="1" gradientUnits="userSpaceOnUse" gradientTransform="translate(27.625 -38.9375) rotate(-126.07) scale(66.7567 69.2658)">
<stop offset="0.0001" stop-color="#FF775E" stop-opacity="0.1"/>
<stop offset="0.47" stop-color="#FF4D61" stop-opacity="0.6"/>
<stop offset="1" stop-color="#E83ABC"/>
</radialGradient>
</defs>
</svg>
