<svg width="109" height="18" viewBox="0 0 109 18" fill="none" xmlns="http://www.w3.org/2000/svg">
<path d="M23.3917 1.81488H24.0384V2.45507H23.3917V1.81488Z" fill="#F5618F"/>
<path d="M24.0401 1.81488H24.6868V2.45507H24.0401V1.81488Z" fill="#F25F8C"/>
<path d="M15.632 3.09516H16.2787V3.73534H15.632V3.09516Z" fill="#E64D7D"/>
<path d="M16.9258 3.09516H17.5725V3.73534H16.9258V3.09516Z" fill="#E64D7D"/>
<path d="M17.5711 3.09516H18.2179V3.73534H17.5711V3.09516Z" fill="#E64D7D"/>
<path d="M17.5711 3.73534H18.2179V4.37563H17.5711V3.73534Z" fill="#E64D7D"/>
<path d="M14.9851 3.09516H15.632V3.73534H14.9851V3.09516Z" fill="#E64D7D"/>
<path d="M18.2179 3.09516H18.8648V3.73534H18.2179V3.09516Z" fill="#E64D7D"/>
<path d="M19.5133 3.09516H20.1601V3.73534H19.5133V3.09516Z" fill="#E64D7D"/>
<path d="M18.8648 3.09516H19.5116V3.73534H18.8648V3.09516Z" fill="#E64D7D"/>
<path d="M20.1587 3.09516H20.8054V3.73534H20.1587V3.09516Z" fill="#E64D7D"/>
<path d="M20.8054 3.09516H21.4523V3.73534H20.8054V3.09516Z" fill="#E64D7D"/>
<path d="M22.0995 3.09503H22.7463V3.73521H22.0995V3.09503Z" fill="#E64D7D"/>
<path d="M21.454 3.09516H22.1007V3.73534H21.454V3.09516Z" fill="#E64D7D"/>
<path d="M22.7448 3.09503H23.3916V3.73521H22.7448V3.09503Z" fill="#E64D7D"/>
<path d="M23.3916 3.09503H24.0384V3.73521H23.3916V3.09503Z" fill="#E64D7D"/>
<path d="M24.6869 3.09503H25.3337V3.73521H24.6869V3.09503Z" fill="#E64D7D"/>
<path d="M24.0401 3.09503H24.6869V3.73521H24.0401V3.09503Z" fill="#E64D7D"/>
<path d="M25.3337 3.09503H25.9806V3.73521H25.3337V3.09503Z" fill="#D53868"/>
<path d="M15.632 2.45525H16.2787V3.09516H15.632V2.45525Z" fill="#E64D7D"/>
<path d="M16.9258 2.45525H17.5725V3.09516H16.9258V2.45525Z" fill="#E64D7D"/>
<path d="M16.2773 2.45525H16.9241V3.09543H16.2773V2.45525Z" fill="#E64D7D"/>
<path d="M16.2773 3.09543H16.9241V3.73534H16.2773V3.09543Z" fill="#E64D7D"/>
<path d="M17.5711 2.45525H18.2179V3.09516H17.5711V2.45525Z" fill="#E64D7D"/>
<path d="M18.2179 2.45525H18.8648V3.09516H18.2179V2.45525Z" fill="#E64D7D"/>
<path d="M19.5133 2.45525H20.1601V3.09516H19.5133V2.45525Z" fill="#E64D7D"/>
<path d="M18.8648 2.45525H19.5116V3.09516H18.8648V2.45525Z" fill="#E64D7D"/>
<path d="M20.1587 2.45525H20.8054V3.09516H20.1587V2.45525Z" fill="#E64D7D"/>
<path d="M20.8054 2.45525H21.4523V3.09516H20.8054V2.45525Z" fill="#E64D7D"/>
<path d="M22.0995 2.45515H22.7463V3.09503H22.0995V2.45515Z" fill="#E64D7D"/>
<path d="M21.454 2.45525H22.1007V3.09516H21.454V2.45525Z" fill="#E64D7D"/>
<path d="M22.7448 2.45515L23.3917 2.45507L23.3916 3.09503H22.7448V2.45515Z" fill="#E64D7D"/>
<path d="M23.3917 2.45507H24.0384V3.09503H23.3916L23.3917 2.45507Z" fill="#E64D7D"/>
<path d="M24.0401 2.45507H24.6868L24.6869 3.09503H24.0401V2.45507Z" fill="#E64D7D"/>
<path d="M15.6304 1.81495H16.2772L16.2773 2.45525L15.6304 2.45513V1.81495Z" fill="#FF82B0"/>
<path d="M16.9258 1.81495H17.5725V2.45525H16.9258V1.81495Z" fill="#FF7CAA"/>
<path d="M16.2772 1.81495H16.9241V2.45525H16.2773L16.2772 1.81495Z" fill="#FF7FAC"/>
<path d="M17.5711 1.81495H18.2179V2.45525H17.5711V1.81495Z" fill="#FF79A7"/>
<path d="M14.9851 1.81495H15.6319L15.632 2.45525L14.9851 2.45513V1.81495Z" fill="#FF82B0"/>
<path d="M14.9851 2.45513L15.632 2.45525V3.09516H14.9851V2.45513Z" fill="#FF82B0"/>
<path d="M14.3382 2.45525L14.9851 2.45513V3.09516L14.3382 3.09543V2.45525Z" fill="#FF82B0"/>
<path d="M18.2179 1.81495H18.8648V2.45525H18.2179V1.81495Z" fill="#FF76A4"/>
<path d="M19.5133 1.81495H20.1601V2.45525H19.5133V1.81495Z" fill="#FF709E"/>
<path d="M18.8648 1.81495H19.5116V2.45525H18.8648V1.81495Z" fill="#FF73A1"/>
<path d="M20.1587 1.81495H20.8054V2.45525H20.1587V1.81495Z" fill="#FF709E"/>
<path d="M20.8054 1.81495H21.4523V2.45525H20.8054V1.81495Z" fill="#FF6D9B"/>
<path d="M22.0995 1.81488H22.7463V2.45515H22.0995V1.81488Z" fill="#FB6795"/>
<path d="M21.454 1.81495H22.1007V2.45525H21.454V1.81495Z" fill="#FE6A98"/>
<path d="M22.7448 1.81488H23.3917V2.45507L22.7448 2.45515V1.81488Z" fill="#F86492"/>
<path d="M15.632 12.6977H16.2787V13.3378H15.632V12.6977Z" fill="#D53868"/>
<path d="M16.9258 12.6977H17.5725V13.3378H16.9258V12.6977Z" fill="#D53868"/>
<path d="M16.2773 12.6977H16.9241V13.3378H16.2773V12.6977Z" fill="#D53868"/>
<path d="M17.5711 12.6977H18.2179V13.3378H17.5711V12.6977Z" fill="#D53868"/>
<path d="M18.2179 12.6977H18.8648V13.3378H18.2179V12.6977Z" fill="#D53868"/>
<path d="M19.5133 12.6977H20.1601V13.3378H19.5133V12.6977Z" fill="#D53868"/>
<path d="M18.8648 12.6977H19.5116V13.3378H18.8648V12.6977Z" fill="#D53868"/>
<path d="M20.1587 12.6977H20.8054V13.3378H20.1587V12.6977Z" fill="#D53868"/>
<path d="M20.8054 12.6977H21.4523V13.3378H20.8054V12.6977Z" fill="#D53868"/>
<path d="M22.0993 12.6977H22.7461V13.3378H22.0993V12.6977Z" fill="#D53868"/>
<path d="M21.454 12.6977H22.1007V13.3378H21.454V12.6977Z" fill="#D53868"/>
<path d="M22.7447 12.6977H23.3914V13.3378H22.7447V12.6977Z" fill="#D53868"/>
<path d="M23.3914 12.6977H24.0383V13.3378H23.3914V12.6977Z" fill="#D53868"/>
<path d="M24.04 12.6977H24.6868V13.3378H24.04V12.6977Z" fill="#D53868"/>
<path d="M15.632 12.0578H16.2787V12.6977H15.632V12.0578Z" fill="#E64D7D"/>
<path d="M16.9258 12.0578H17.5725V12.6977H16.9258V12.0578Z" fill="#E64D7D"/>
<path d="M16.2773 12.0578H16.9241V12.6977H16.2773V12.0578Z" fill="#E64D7D"/>
<path d="M17.5711 12.0578H18.2179V12.6977H17.5711V12.0578Z" fill="#E64D7D"/>
<path d="M18.2179 12.0578H18.8648V12.6977H18.2179V12.0578Z" fill="#E64D7D"/>
<path d="M19.5133 12.0578H20.1601V12.6977H19.5133V12.0578Z" fill="#E64D7D"/>
<path d="M18.8648 12.0578H19.5116V12.6977H18.8648V12.0578Z" fill="#E64D7D"/>
<path d="M20.1587 12.0578H20.8054V12.6977H20.1587V12.0578Z" fill="#E64D7D"/>
<path d="M20.8054 12.0578H21.4523V12.6977H20.8054V12.0578Z" fill="#E64D7D"/>
<path d="M22.0993 12.0578H22.7461V12.6977H22.0993V12.0578Z" fill="#E64D7D"/>
<path d="M21.454 12.0578H22.1007V12.6977H21.454V12.0578Z" fill="#E64D7D"/>
<path d="M22.7447 12.0578H23.3914V12.6977H22.7447V12.0578Z" fill="#E64D7D"/>
<path d="M23.3914 12.0578H24.0383V12.6977H23.3914V12.0578Z" fill="#E64D7D"/>
<path d="M24.04 12.0578H24.6868V12.6977H24.04V12.0578Z" fill="#E64D7D"/>
<path d="M20.8055 11.4175H21.4523V12.0578H20.8054L20.8055 11.4175Z" fill="#E64D7D"/>
<path d="M22.0993 11.4175H22.7461V12.0578H22.0993V11.4175Z" fill="#E64D7D"/>
<path d="M21.454 11.4175H22.1007V12.0578H21.454V11.4175Z" fill="#E64D7D"/>
<path d="M25.3338 2.45515H25.9806V3.09503H25.3337L25.3338 2.45515Z" fill="#D53868"/>
<path d="M24.6868 2.45507L25.3338 2.45515L25.3337 3.09503H24.6869L24.6868 2.45507Z" fill="#D53868"/>
<path d="M24.6868 1.81488H25.3337L25.3338 2.45515L24.6868 2.45507V1.81488Z" fill="#E54D7C"/>
<path d="M14.9851 3.09516V3.73534H14.3383L14.3382 3.09543L14.9851 3.09516Z" fill="#FF82B0"/>
<path d="M14.9851 4.37575L14.9851 5.01593H14.3383V4.37575H14.9851Z" fill="#FF7CAA"/>
<path d="M14.9851 3.73534V4.37575H14.3383V3.73534H14.9851Z" fill="#FF7FAC"/>
<path d="M14.9851 5.01593V5.65622H14.3383V5.01593H14.9851Z" fill="#FF79A7"/>
<path d="M14.9851 5.65622V6.29614L14.3383 6.29614V5.65622H14.9851Z" fill="#FF76A4"/>
<path d="M14.9851 6.93654L14.9851 7.57673H14.3383V6.93654H14.9851Z" fill="#FF709E"/>
<path d="M14.9851 6.29614L14.9851 6.93654H14.3383V6.29614L14.9851 6.29614Z" fill="#FF73A1"/>
<path d="M14.9851 7.57673V8.21664H14.3383V7.57673H14.9851Z" fill="#FF709E"/>
<path d="M14.9851 8.21664V8.85693H14.3383V8.21664H14.9851Z" fill="#FF6D9B"/>
<path d="M14.9851 9.49696L14.9851 10.1371H14.3383V9.49696H14.9851Z" fill="#FB6795"/>
<path d="M14.9851 8.85693L14.9851 9.49696H14.3383V8.85693H14.9851Z" fill="#FE6A98"/>
<path d="M14.9851 10.1371V10.7771H14.3383V10.1371H14.9851Z" fill="#F86492"/>
<path d="M14.9851 12.0578L14.9851 12.6979H14.3383V12.0578H14.9851Z" fill="#E54D7C"/>
<path d="M24.6868 12.0578H25.3337V12.6979L24.6868 12.6977V12.0578Z" fill="#D53868"/>
<path d="M25.3337 12.0578H25.9805V12.6979H25.3337V12.0578Z" fill="#D53868"/>
<path d="M24.6868 12.6977L25.3337 12.6979V13.3378H24.6868V12.6977Z" fill="#D53868"/>
<path d="M14.9851 12.0578H15.632V12.6977L14.9851 12.6979L14.9851 12.0578Z" fill="#D53868"/>
<path d="M14.9851 12.6979L15.632 12.6977V13.3378H14.9851L14.9851 12.6979Z" fill="#D53868"/>
<path d="M14.9851 11.4175H15.6319L15.632 12.0578H14.9851V11.4175Z" fill="#E64D7D"/>
<path d="M20.8055 10.7772H21.4523V11.4175H20.8055V10.7772Z" fill="#E64D7D"/>
<path d="M22.7447 11.4175H23.3914V12.0578H22.7447V11.4175Z" fill="#E64D7D"/>
<path d="M23.3914 11.4175H24.0383V12.0578H23.3914V11.4175Z" fill="#E64D7D"/>
<path d="M24.04 11.4175H24.6868V12.0578H24.04V11.4175Z" fill="#E64D7D"/>
<path d="M24.6868 11.4175H25.3337V12.0578H24.6868V11.4175Z" fill="#E64D7D"/>
<path d="M22.7447 10.7772H23.3914V11.4175H22.7447V10.7772Z" fill="#E64D7D"/>
<path d="M23.3914 10.7772H24.0383V11.4175H23.3914V10.7772Z" fill="#E64D7D"/>
<path d="M24.04 10.7772H24.6868V11.4175H24.04V10.7772Z" fill="#E64D7D"/>
<path d="M24.6868 10.7772H25.3337V11.4175H24.6868V10.7772Z" fill="#E64D7D"/>
<path d="M22.0993 10.7772H22.7461V11.4175H22.0993V10.7772Z" fill="#E64D7D"/>
<path d="M21.454 10.7772H22.1007V11.4175H21.454V10.7772Z" fill="#E64D7D"/>
<path d="M25.3337 10.7772H25.9805V11.4173L25.3337 11.4175V10.7772Z" fill="#D53868"/>
<path d="M25.3337 11.4175L25.9805 11.4173V12.0578H25.3337V11.4175Z" fill="#D53868"/>
<path d="M14.9851 10.7771L15.6319 10.7772V11.4175H14.9851L14.9851 10.7771Z" fill="#E64D7D"/>
<path d="M15.632 10.1369H16.2787V10.7771L15.6319 10.7772L15.632 10.1369Z" fill="#E64D7D"/>
<path d="M16.9258 10.1369H17.5725V10.7771H16.9258V10.1369Z" fill="#E64D7D"/>
<path d="M16.2773 10.1369H16.9241V10.7771H16.2773V10.1369Z" fill="#E64D7D"/>
<path d="M17.5711 10.1369H18.2179V10.7771H17.5711V10.1369Z" fill="#E64D7D"/>
<path d="M18.2179 10.1369H18.8648V10.7771H18.2179V10.1369Z" fill="#E64D7D"/>
<path d="M19.5133 10.1369H20.1601V10.7771H19.5133V10.1369Z" fill="#E64D7D"/>
<path d="M18.8648 10.1369H19.5116V10.7771H18.8648V10.1369Z" fill="#E64D7D"/>
<path d="M20.1587 10.1369H20.8054L20.8055 10.7772L20.1587 10.7771V10.1369Z" fill="#E64D7D"/>
<path d="M23.3916 10.1369H24.0383V10.7772H23.3914L23.3916 10.1369Z" fill="#E64D7D"/>
<path d="M24.04 10.1369H24.6868V10.7772H24.04V10.1369Z" fill="#E64D7D"/>
<path d="M20.8054 10.1369H21.4523V10.7772H20.8055L20.8054 10.1369Z" fill="#E64D7D"/>
<path d="M22.0993 10.1369H22.7461V10.7772H22.0993V10.1369Z" fill="#E64D7D"/>
<path d="M21.454 10.1369H22.1007V10.7772H21.454V10.1369Z" fill="#E64D7D"/>
<path d="M24.6868 10.1369H25.3337V10.7772H24.6868V10.1369Z" fill="#E64D7D"/>
<path d="M25.3337 10.1369H25.9805V10.7772H25.3337V10.1369Z" fill="#D53868"/>
<path d="M14.9851 10.1371L15.632 10.1369L15.6319 10.7772L14.9851 10.7771V10.1371Z" fill="#E64D7D"/>
<path d="M15.632 9.49696H16.2787V10.1369H15.632V9.49696Z" fill="#E64D7D"/>
<path d="M16.9258 9.49696H17.5725V10.1369H16.9258V9.49696Z" fill="#E64D7D"/>
<path d="M16.2773 9.49696H16.9241V10.1369H16.2773V9.49696Z" fill="#E64D7D"/>
<path d="M17.5711 9.49696H18.2179V10.1369H17.5711V9.49696Z" fill="#E64D7D"/>
<path d="M18.2179 9.49696H18.8648V10.1369H18.2179V9.49696Z" fill="#E64D7D"/>
<path d="M19.5133 9.49696H20.1601V10.1369H19.5133V9.49696Z" fill="#E64D7D"/>
<path d="M18.8648 9.49696H19.5116V10.1369H18.8648V9.49696Z" fill="#E64D7D"/>
<path d="M20.1587 9.49696H20.8054V10.1369H20.1587V9.49696Z" fill="#E64D7D"/>
<path d="M15.6319 11.4175H16.2787V12.0578H15.632L15.6319 11.4175Z" fill="#E64D7D"/>
<path d="M16.9258 11.4175H17.5725V12.0578H16.9258V11.4175Z" fill="#E64D7D"/>
<path d="M16.2773 11.4175H16.9241V12.0578H16.2773V11.4175Z" fill="#E64D7D"/>
<path d="M17.5711 11.4175H18.2179V12.0578H17.5711V11.4175Z" fill="#E64D7D"/>
<path d="M18.2179 11.4175H18.8648V12.0578H18.2179V11.4175Z" fill="#E64D7D"/>
<path d="M19.5133 11.4175H20.1601V12.0578H19.5133V11.4175Z" fill="#E64D7D"/>
<path d="M18.8648 11.4175H19.5116V12.0578H18.8648V11.4175Z" fill="#E64D7D"/>
<path d="M20.1587 11.4175H20.8055L20.8054 12.0578H20.1587V11.4175Z" fill="#E64D7D"/>
<path d="M15.6319 10.7772L16.2787 10.7771V11.4175H15.6319V10.7772Z" fill="#E64D7D"/>
<path d="M16.9258 10.7771H17.5725V11.4175H16.9258V10.7771Z" fill="#E64D7D"/>
<path d="M16.2773 10.7771H16.9241V11.4175H16.2773V10.7771Z" fill="#E64D7D"/>
<path d="M17.5711 10.7771H18.2179V11.4175H17.5711V10.7771Z" fill="#E64D7D"/>
<path d="M18.2179 10.7771H18.8648V11.4175H18.2179V10.7771Z" fill="#E64D7D"/>
<path d="M19.5133 10.7771H20.1601V11.4175H19.5133V10.7771Z" fill="#E64D7D"/>
<path d="M18.8648 10.7771H19.5116V11.4175H18.8648V10.7771Z" fill="#E64D7D"/>
<path d="M20.1587 10.7771L20.8055 10.7772V11.4175H20.1587V10.7771Z" fill="#E64D7D"/>
<path d="M22.0993 9.49696H22.7461V10.1369H22.0993V9.49696Z" fill="#E64D7D"/>
<path d="M21.454 9.49696H22.1007V10.1369H21.454V9.49696Z" fill="#E64D7D"/>
<path d="M22.7447 9.49696H23.3914L23.3916 10.1369L22.7447 10.1371V9.49696Z" fill="#E64D7D"/>
<path d="M22.7447 10.1371L23.3916 10.1369L23.3914 10.7772H22.7447V10.1371Z" fill="#E64D7D"/>
<path d="M23.3914 9.49696H24.0383V10.1369H23.3916L23.3914 9.49696Z" fill="#E64D7D"/>
<path d="M24.04 9.49696H24.6868V10.1369H24.04V9.49696Z" fill="#E64D7D"/>
<path d="M15.632 8.85667H16.2787V9.49696H15.632V8.85667Z" fill="#E64D7D"/>
<path d="M16.9258 8.85667H17.5725V9.49696H16.9258V8.85667Z" fill="#E64D7D"/>
<path d="M16.2773 8.85667H16.9241V9.49696H16.2773V8.85667Z" fill="#E64D7D"/>
<path d="M17.5711 8.85667H18.2179V9.49696H17.5711V8.85667Z" fill="#E64D7D"/>
<path d="M19.5133 8.85667H20.1601V9.49696H19.5133V8.85667Z" fill="#E64D7D"/>
<path d="M18.8649 8.85667H19.5116V9.49696H18.8648L18.8649 8.85667Z" fill="#E64D7D"/>
<path d="M20.1587 8.85667H20.8054V9.49696H20.1587V8.85667Z" fill="#E64D7D"/>
<path d="M20.8054 9.49696H21.4523V10.1369H20.8054V9.49696Z" fill="#E64D7D"/>
<path d="M22.0993 8.85667H22.7461V9.49696H22.0993V8.85667Z" fill="#E64D7D"/>
<path d="M21.454 8.85667H22.1007V9.49696H21.454V8.85667Z" fill="#E64D7D"/>
<path d="M22.7447 8.85667H23.3914V9.49696H22.7447V8.85667Z" fill="#E64D7D"/>
<path d="M24.04 8.85667H24.6868V9.49696H24.04V8.85667Z" fill="#E64D7D"/>
<path d="M15.632 8.21675H16.2787V8.85667H15.632V8.21675Z" fill="#E64D7D"/>
<path d="M16.2773 8.21675H16.9241V8.85667H16.2773V8.21675Z" fill="#E64D7D"/>
<path d="M17.5711 8.21675H18.2179V8.85667H17.5711V8.21675Z" fill="#E64D7D"/>
<path d="M18.2179 8.21675H18.8648L18.8649 8.85667H18.2179V8.21675Z" fill="#E64D7D"/>
<path d="M18.2179 8.85667H18.8649L18.8648 9.49696H18.2179V8.85667Z" fill="#E64D7D"/>
<path d="M19.5133 8.21675H20.1601V8.85667H19.5133V8.21675Z" fill="#E64D7D"/>
<path d="M18.8648 8.21675H19.5116V8.85667H18.8649L18.8648 8.21675Z" fill="#E64D7D"/>
<path d="M20.1587 8.21675H20.8054V8.85667H20.1587V8.21675Z" fill="#E64D7D"/>
<path d="M20.8054 8.21675H21.4523V8.85693L20.8054 8.85667V8.21675Z" fill="#E64D7D"/>
<path d="M20.8054 8.85667L21.4523 8.85693V9.49696H20.8054V8.85667Z" fill="#E64D7D"/>
<path d="M22.0993 8.21675H22.7461V8.85667H22.0993V8.21675Z" fill="#E64D7D"/>
<path d="M21.454 8.21675H22.1007V8.85667H21.454V8.21675Z" fill="#E64D7D"/>
<path d="M22.7447 8.21675H23.3914V8.85667H22.7447V8.21675Z" fill="#E64D7D"/>
<path d="M23.3914 8.85667H24.0383V9.49696H23.3914V8.85667Z" fill="#E64D7D"/>
<path d="M23.3914 8.21675H24.0383V8.85667H23.3914V8.21675Z" fill="#E64D7D"/>
<path d="M24.04 8.21675H24.6868V8.85667H24.04V8.21675Z" fill="#E64D7D"/>
<path d="M24.6868 8.21675H25.3337V8.85693L24.6868 8.85667V8.21675Z" fill="#E64D7D"/>
<path d="M24.6868 8.85667L25.3337 8.85693V9.49685L24.6868 9.49696V8.85667Z" fill="#E64D7D"/>
<path d="M25.3337 8.21675H25.9805V8.85693H25.3337V8.21675Z" fill="#D53868"/>
<path d="M25.3337 8.85693H25.9805V9.49685H25.3337V8.85693Z" fill="#D53868"/>
<path d="M24.6868 9.49696L25.3337 9.49685V10.1369H24.6868V9.49696Z" fill="#E64D7D"/>
<path d="M25.3337 9.49685H25.9805V10.1369H25.3337V9.49685Z" fill="#D53868"/>
<path d="M14.9851 8.85693L15.632 8.85667V9.49696H14.9851L14.9851 8.85693Z" fill="#E64D7D"/>
<path d="M14.9851 9.49696H15.632V10.1369L14.9851 10.1371L14.9851 9.49696Z" fill="#E64D7D"/>
<path d="M14.9851 8.21664L15.632 8.21675V8.85667L14.9851 8.85693V8.21664Z" fill="#E64D7D"/>
<path d="M15.632 7.57646H16.2787V8.21675H15.632V7.57646Z" fill="#E64D7D"/>
<path d="M16.9258 8.21675H17.5725V8.85667H16.9258V8.21675Z" fill="#E64D7D"/>
<path d="M16.9258 7.57646H17.5725V8.21675H16.9258V7.57646Z" fill="#E64D7D"/>
<path d="M16.2773 7.57646H16.9241V8.21675H16.2773V7.57646Z" fill="#E64D7D"/>
<path d="M17.5711 7.57646H18.2179V8.21675H17.5711V7.57646Z" fill="#E64D7D"/>
<path d="M18.2179 7.57646H18.8648V8.21675H18.2179V7.57646Z" fill="#E64D7D"/>
<path d="M19.5133 7.57646H20.1601V8.21675H19.5133V7.57646Z" fill="#E64D7D"/>
<path d="M18.8648 7.57646H19.5116V8.21675H18.8648V7.57646Z" fill="#E64D7D"/>
<path d="M20.1587 7.57646H20.8054V8.21675H20.1587V7.57646Z" fill="#E64D7D"/>
<path d="M20.8054 7.57646H21.4523V8.21675H20.8054V7.57646Z" fill="#E64D7D"/>
<path d="M22.0993 7.57646H22.7461V8.21675H22.0993V7.57646Z" fill="#E64D7D"/>
<path d="M21.454 7.57646H22.1007V8.21675H21.454V7.57646Z" fill="#E64D7D"/>
<path d="M22.7447 7.57646H23.3914V8.21675H22.7447V7.57646Z" fill="#E64D7D"/>
<path d="M23.3914 7.57646H24.0383V8.21675H23.3914V7.57646Z" fill="#E64D7D"/>
<path d="M24.04 7.57646H24.6868V8.21675H24.04V7.57646Z" fill="#E64D7D"/>
<path d="M24.6868 7.57646H25.3337V8.21675H24.6868V7.57646Z" fill="#E64D7D"/>
<path d="M25.3337 7.57646H25.9805V8.21675H25.3337V7.57646Z" fill="#D53868"/>
<path d="M14.9851 7.57673L15.632 7.57646V8.21675L14.9851 8.21664V7.57673Z" fill="#E64D7D"/>
<path d="M15.632 6.93654H16.2787V7.57646H15.632V6.93654Z" fill="#E64D7D"/>
<path d="M16.2773 6.93654H16.9241V7.57646H16.2773V6.93654Z" fill="#E64D7D"/>
<path d="M18.218 6.93654H18.8648V7.57646H18.2179L18.218 6.93654Z" fill="#E64D7D"/>
<path d="M19.5133 6.93654H20.1601V7.57646H19.5133V6.93654Z" fill="#E64D7D"/>
<path d="M18.8648 6.93654H19.5116V7.57646H18.8648V6.93654Z" fill="#E64D7D"/>
<path d="M20.1587 6.93654H20.8054V7.57646H20.1587V6.93654Z" fill="#E64D7D"/>
<path d="M20.8054 6.93654H21.4523V7.57646H20.8054V6.93654Z" fill="#E64D7D"/>
<path d="M22.0993 6.93654H22.7461V7.57646H22.0993V6.93654Z" fill="#E64D7D"/>
<path d="M21.454 6.93654H22.1007V7.57646H21.454V6.93654Z" fill="#E64D7D"/>
<path d="M22.7447 6.93654H23.3914V7.57646H22.7447V6.93654Z" fill="#E64D7D"/>
<path d="M23.3914 6.93654H24.0383V7.57646H23.3914V6.93654Z" fill="#E64D7D"/>
<path d="M24.04 6.93654H24.6868V7.57646H24.04V6.93654Z" fill="#E64D7D"/>
<path d="M24.6868 6.93654H25.3337V7.57646H24.6868V6.93654Z" fill="#E64D7D"/>
<path d="M25.3337 6.93654H25.9805V7.57646H25.3337V6.93654Z" fill="#D53868"/>
<path d="M14.9851 6.93654H15.632V7.57646L14.9851 7.57673L14.9851 6.93654Z" fill="#E64D7D"/>
<path d="M15.632 6.29663H16.2787V6.93654H15.632V6.29663Z" fill="#E64D7D"/>
<path d="M16.9258 6.29663H17.5725V6.93681H16.9258V6.29663Z" fill="#E64D7D"/>
<path d="M16.2773 6.29663H16.9241V6.93654H16.2773V6.29663Z" fill="#E64D7D"/>
<path d="M17.5711 6.29663H18.2179L18.218 6.93654L17.5711 6.93681V6.29663Z" fill="#E64D7D"/>
<path d="M16.9258 6.93681H17.5725V7.57646H16.9258V6.93681Z" fill="#E64D7D"/>
<path d="M17.5711 6.93681L18.218 6.93654L18.2179 7.57646H17.5711V6.93681Z" fill="#E64D7D"/>
<path d="M18.2179 6.29663H18.8648V6.93654H18.218L18.2179 6.29663Z" fill="#E64D7D"/>
<path d="M19.5133 6.29663H20.1601V6.93654H19.5133V6.29663Z" fill="#E64D7D"/>
<path d="M18.8648 6.29663H19.5116V6.93654H18.8648V6.29663Z" fill="#E64D7D"/>
<path d="M20.1587 6.29663H20.8054V6.93654H20.1587V6.29663Z" fill="#E64D7D"/>
<path d="M20.8054 6.29663H21.4523V6.93654H20.8054V6.29663Z" fill="#E64D7D"/>
<path d="M22.0993 6.29663H22.7461V6.93654H22.0993V6.29663Z" fill="#E64D7D"/>
<path d="M21.454 6.29663H22.1007V6.93654H21.454V6.29663Z" fill="#E64D7D"/>
<path d="M22.7447 6.29663H23.3914V6.93654H22.7447V6.29663Z" fill="#E64D7D"/>
<path d="M23.3914 6.29663H24.0383V6.93654H23.3914V6.29663Z" fill="#E64D7D"/>
<path d="M24.04 6.29663H24.6868V6.93654H24.04V6.29663Z" fill="#E64D7D"/>
<path d="M24.6868 6.29663H25.3337V6.93654H24.6868V6.29663Z" fill="#E64D7D"/>
<path d="M25.3337 6.29663H25.9805V6.93654H25.3337V6.29663Z" fill="#D53868"/>
<path d="M14.9851 6.29614L15.632 6.29663V6.93654H14.9851L14.9851 6.29614Z" fill="#E64D7D"/>
<path d="M15.632 5.65595H16.2787V6.29663H15.632V5.65595Z" fill="#E64D7D"/>
<path d="M16.9258 5.65595H17.5725V6.29663H16.9258V5.65595Z" fill="#E64D7D"/>
<path d="M16.2773 5.65595H16.9241V6.29663H16.2773V5.65595Z" fill="#E64D7D"/>
<path d="M17.5711 5.65595H18.2179V6.29663H17.5711V5.65595Z" fill="#E64D7D"/>
<path d="M18.2179 5.65595H18.8648V6.29663H18.2179V5.65595Z" fill="#E64D7D"/>
<path d="M19.5133 5.65595H20.1601V6.29663H19.5133V5.65595Z" fill="#E64D7D"/>
<path d="M18.8648 5.65595H19.5116V6.29663H18.8648V5.65595Z" fill="#E64D7D"/>
<path d="M20.1587 5.65595H20.8054V6.29663H20.1587V5.65595Z" fill="#E64D7D"/>
<path d="M20.8054 5.65595H21.4523V6.29663H20.8054V5.65595Z" fill="#E64D7D"/>
<path d="M22.0993 5.65595H22.7461V6.29663H22.0993V5.65595Z" fill="#E64D7D"/>
<path d="M21.454 5.65595H22.1007V6.29663H21.454V5.65595Z" fill="#E64D7D"/>
<path d="M22.7447 5.65595H23.3914V6.29663H22.7447V5.65595Z" fill="#E64D7D"/>
<path d="M23.3914 5.65595H24.0383V6.29663H23.3914V5.65595Z" fill="#E64D7D"/>
<path d="M24.04 5.65595H24.6868V6.29663H24.04V5.65595Z" fill="#E64D7D"/>
<path d="M15.632 5.01604H16.2787V5.65595H15.632V5.01604Z" fill="#E64D7D"/>
<path d="M16.9258 5.01604H17.5725V5.65595H16.9258V5.01604Z" fill="#E64D7D"/>
<path d="M16.2773 5.01604H16.9241V5.65595H16.2773V5.01604Z" fill="#E64D7D"/>
<path d="M17.5711 5.01604H18.2179V5.65595H17.5711V5.01604Z" fill="#E64D7D"/>
<path d="M19.5133 5.01604H20.1601V5.65595H19.5133V5.01604Z" fill="#E64D7D"/>
<path d="M18.8649 5.01604H19.5116V5.65595H18.8648L18.8649 5.01604Z" fill="#E64D7D"/>
<path d="M20.1587 5.01604H20.8054V5.65595H20.1587V5.01604Z" fill="#E64D7D"/>
<path d="M20.8054 5.01604H21.4523V5.65595H20.8054V5.01604Z" fill="#E64D7D"/>
<path d="M22.0993 5.01604H22.7461V5.65595H22.0993V5.01604Z" fill="#E64D7D"/>
<path d="M21.454 5.01604H22.1007V5.65595H21.454V5.01604Z" fill="#E64D7D"/>
<path d="M22.7447 5.01604H23.3914V5.65595H22.7447V5.01604Z" fill="#E64D7D"/>
<path d="M23.3914 5.01604H24.0383V5.65595H23.3914V5.01604Z" fill="#E64D7D"/>
<path d="M24.04 5.01604H24.6868V5.65595H24.04V5.01604Z" fill="#E64D7D"/>
<path d="M24.6868 5.01604H25.3337V5.65622L24.6868 5.65595V5.01604Z" fill="#E64D7D"/>
<path d="M24.6868 5.65595L25.3337 5.65622V6.29663H24.6868V5.65595Z" fill="#E64D7D"/>
<path d="M25.3337 5.01604H25.9805V5.65622H25.3337V5.01604Z" fill="#D53868"/>
<path d="M25.3337 5.65622H25.9805V6.29663H25.3337V5.65622Z" fill="#D53868"/>
<path d="M14.9851 5.65622L15.632 5.65595V6.29663L14.9851 6.29614V5.65622Z" fill="#E64D7D"/>
<path d="M14.9851 5.01593L15.632 5.01604V5.65595L14.9851 5.65622V5.01593Z" fill="#E64D7D"/>
<path d="M15.632 4.37575H16.2787V5.01604H15.632V4.37575Z" fill="#E64D7D"/>
<path d="M16.9258 4.37575H17.5725V5.01604H16.9258V4.37575Z" fill="#E64D7D"/>
<path d="M16.2773 4.37575H16.9241V5.01604H16.2773V4.37575Z" fill="#E64D7D"/>
<path d="M17.5711 4.37563H18.2179V5.01604H17.5711V4.37563Z" fill="#E64D7D"/>
<path d="M18.2179 4.37563L18.8648 4.37575L18.8649 5.01604H18.2179V4.37563Z" fill="#E64D7D"/>
<path d="M18.2179 5.01604H18.8649L18.8648 5.65595H18.2179V5.01604Z" fill="#E64D7D"/>
<path d="M19.5133 4.37575H20.1601V5.01604H19.5133V4.37575Z" fill="#E64D7D"/>
<path d="M18.8648 4.37575H19.5116V5.01604H18.8649L18.8648 4.37575Z" fill="#E64D7D"/>
<path d="M20.1587 4.37575H20.8054V5.01604H20.1587V4.37575Z" fill="#E64D7D"/>
<path d="M20.8054 4.37575H21.4523V5.01604H20.8054V4.37575Z" fill="#E64D7D"/>
<path d="M22.0993 4.37575H22.7461V5.01604H22.0993V4.37575Z" fill="#E64D7D"/>
<path d="M21.454 4.37575H22.1007V5.01604H21.454V4.37575Z" fill="#E64D7D"/>
<path d="M22.7447 4.37575H23.3914V5.01604H22.7447V4.37575Z" fill="#E64D7D"/>
<path d="M23.3914 4.37575H24.0383V5.01604H23.3914V4.37575Z" fill="#E64D7D"/>
<path d="M24.04 4.37575H24.6868V5.01604H24.04V4.37575Z" fill="#E64D7D"/>
<path d="M24.6868 4.37575H25.3337V5.01604H24.6868V4.37575Z" fill="#E64D7D"/>
<path d="M25.3337 4.37575H25.9805V5.01604H25.3337V4.37575Z" fill="#D53868"/>
<path d="M14.9851 4.37575H15.632V5.01604L14.9851 5.01593L14.9851 4.37575Z" fill="#E64D7D"/>
<path d="M15.632 3.73534H16.2787V4.37575H15.632V3.73534Z" fill="#E64D7D"/>
<path d="M16.9258 3.73534H17.5725V4.37575H16.9258V3.73534Z" fill="#E64D7D"/>
<path d="M16.2773 3.73534H16.9241V4.37575H16.2773V3.73534Z" fill="#E64D7D"/>
<path d="M18.2179 3.73534H18.8648V4.37575L18.2179 4.37563V3.73534Z" fill="#E64D7D"/>
<path d="M19.5133 3.73534H20.1601V4.37575H19.5133V3.73534Z" fill="#E64D7D"/>
<path d="M18.8648 3.73534H19.5116V4.37575H18.8648V3.73534Z" fill="#E64D7D"/>
<path d="M20.1587 3.73534H20.8054V4.37575H20.1587V3.73534Z" fill="#E64D7D"/>
<path d="M20.8054 3.73534H21.4523V4.37575H20.8054V3.73534Z" fill="#E64D7D"/>
<path d="M22.0995 3.73521H22.7463L22.7461 4.37575H22.0993L22.0995 3.73521Z" fill="#E64D7D"/>
<path d="M21.454 3.73534H22.1007V4.37575H21.454V3.73534Z" fill="#E64D7D"/>
<path d="M22.7448 3.73521H23.3916L23.3914 4.37575H22.7447L22.7448 3.73521Z" fill="#E64D7D"/>
<path d="M23.3916 3.73521H24.0384L24.0383 4.37575H23.3914L23.3916 3.73521Z" fill="#E64D7D"/>
<path d="M24.0401 3.73521H24.6869L24.6868 4.37575H24.04L24.0401 3.73521Z" fill="#E64D7D"/>
<path d="M24.6869 3.73521H25.3337L25.3337 4.37575H24.6868L24.6869 3.73521Z" fill="#E64D7D"/>
<path d="M25.3337 3.73521H25.9806L25.9805 4.37575H25.3337L25.3337 3.73521Z" fill="#D53868"/>
<path d="M25.9791 3.09503H26.6259V3.73521H25.9791V3.09503Z" fill="#4A152F"/>
<path d="M26.6275 3.09503H27.2743V3.73521H26.6275V3.09503Z" fill="#452032"/>
<path d="M25.9791 2.45515H26.6259V3.09503H25.9791V2.45515Z" fill="#4A152F"/>
<path d="M26.6275 2.45515H27.2743V3.09503H26.6275V2.45515Z" fill="#452032"/>
<path d="M25.9791 1.81488H26.6259V2.45515H25.9791V1.81488Z" fill="#4A152F"/>
<path d="M25.3337 1.81488H25.9806V2.45515H25.3338L25.3337 1.81488Z" fill="#4A152F"/>
<path d="M25.9791 1.17501H26.6259V1.81488H25.9791V1.17501Z" fill="#452032"/>
<path d="M26.6275 1.81488H27.2743V2.45515H26.6275V1.81488Z" fill="#452032"/>
<path d="M25.9791 12.0578H26.6259V12.6979H25.9791V12.0578Z" fill="#4A152F"/>
<path d="M26.6275 11.4175H27.2743V12.0576H26.6275V11.4175Z" fill="#452032"/>
<path d="M26.6275 12.0576H27.2743V12.6979H26.6275V12.0576Z" fill="#452032"/>
<path d="M25.9791 12.6979H26.6259V13.3378H25.9791V12.6979Z" fill="#4A152F"/>
<path d="M26.6275 12.6979H27.2743V13.3378H26.6275V12.6979Z" fill="#452032"/>
<path d="M25.3337 12.6979H25.9805V13.3378H25.3337V12.6979Z" fill="#4A152F"/>
<path d="M25.9791 13.3378H26.6259V13.9781H25.9791V13.3378Z" fill="#452032"/>
<path d="M25.9791 10.7772H26.6259V11.4173H25.9791V10.7772Z" fill="#4A152F"/>
<path d="M25.9791 11.4173H26.6259V12.0578H25.9791V11.4173Z" fill="#4A152F"/>
<path d="M26.6275 10.7772H27.2743V11.4175H26.6275V10.7772Z" fill="#452032"/>
<path d="M25.9791 10.1369H26.6259V10.7772H25.9791V10.1369Z" fill="#4A152F"/>
<path d="M26.6275 10.1369H27.2743V10.7772H26.6275V10.1369Z" fill="#452032"/>
<path d="M25.9791 8.21675H26.6259V8.85693H25.9791V8.21675Z" fill="#4A152F"/>
<path d="M25.9791 8.85693H26.6259V9.49685H25.9791V8.85693Z" fill="#4A152F"/>
<path d="M26.6275 8.21675H27.2743V8.85693H26.6275V8.21675Z" fill="#452032"/>
<path d="M26.6275 8.85693H27.2743V9.49685H26.6275V8.85693Z" fill="#452032"/>
<path d="M25.9791 9.49685H26.6259V10.1369H25.9791V9.49685Z" fill="#4A152F"/>
<path d="M26.6275 9.49685H27.2743V10.1369H26.6275V9.49685Z" fill="#452032"/>
<path d="M25.9791 7.57646H26.6259V8.21675H25.9791V7.57646Z" fill="#4A152F"/>
<path d="M26.6275 7.57646H27.2743V8.21675H26.6275V7.57646Z" fill="#452032"/>
<path d="M25.9791 6.93654H26.6259V7.57646H25.9791V6.93654Z" fill="#4A152F"/>
<path d="M26.6275 6.93654H27.2743V7.57646H26.6275V6.93654Z" fill="#452032"/>
<path d="M25.9791 6.29663H26.6259V6.93654H25.9791V6.29663Z" fill="#4A152F"/>
<path d="M26.6275 6.29663H27.2743V6.93654H26.6275V6.29663Z" fill="#452032"/>
<path d="M25.9791 5.01604H26.6259V5.65622H25.9791V5.01604Z" fill="#4A152F"/>
<path d="M25.9791 5.65622H26.6259V6.29663H25.9791V5.65622Z" fill="#4A152F"/>
<path d="M26.6275 5.01604H27.2743V5.65622H26.6275V5.01604Z" fill="#452032"/>
<path d="M26.6275 5.65622H27.2743V6.29663H26.6275V5.65622Z" fill="#452032"/>
<path d="M25.9791 4.37575H26.6259V5.01604H25.9791V4.37575Z" fill="#4A152F"/>
<path d="M26.6275 4.37575H27.2743V5.01604H26.6275V4.37575Z" fill="#452032"/>
<path d="M25.9791 3.73521H26.6259L26.6259 4.37575H25.9791L25.9791 3.73521Z" fill="#4A152F"/>
<path d="M26.6275 3.73521H27.2743L27.2743 4.37575H26.6275L26.6275 3.73521Z" fill="#452032"/>
<path d="M13.0444 3.09516H13.6912V3.73534H13.0444V3.09516Z" fill="#452032"/>
<path d="M13.6912 3.09516L14.3382 3.09543L14.3383 3.73534H13.6912V3.09516Z" fill="#4A152F"/>
<path d="M13.0444 2.45525H13.6912V3.09516H13.0444V2.45525Z" fill="#452032"/>
<path d="M13.6912 2.45525H14.3382V3.09543L13.6912 3.09516V2.45525Z" fill="#4A152F"/>
<path d="M13.0444 1.81495H13.6912V2.45525H13.0444V1.81495Z" fill="#452032"/>
<path d="M13.6912 1.81495H14.3381L14.3382 2.45525H13.6912V1.81495Z" fill="#4A152F"/>
<path d="M13.6913 1.17504H14.3381V1.81495H13.6912L13.6913 1.17504Z" fill="#452032"/>
<path d="M13.0444 11.4175H13.6912V12.0576H13.0444V11.4175Z" fill="#452032"/>
<path d="M13.0444 12.0576H13.6912V12.6979H13.0444V12.0576Z" fill="#452032"/>
<path d="M13.6912 11.4175H14.3381L14.3383 12.0578L13.6912 12.0576V11.4175Z" fill="#4A152F"/>
<path d="M13.6912 12.0576L14.3383 12.0578V12.6979H13.6912V12.0576Z" fill="#4A152F"/>
<path d="M13.0444 12.6979H13.6912V13.3378H13.0444V12.6979Z" fill="#452032"/>
<path d="M13.6912 12.6979H14.3383L14.3381 13.3378H13.6912V12.6979Z" fill="#4A152F"/>
<path d="M14.3383 12.6979H14.9851L14.9851 13.3378H14.3381L14.3383 12.6979Z" fill="#4A152F"/>
<path d="M13.0444 10.7772H13.6912V11.4175H13.0444V10.7772Z" fill="#452032"/>
<path d="M13.6912 10.7772L14.3383 10.7771L14.3381 11.4175H13.6912V10.7772Z" fill="#4A152F"/>
<path d="M13.0444 10.1369H13.6912V10.7772H13.0444V10.1369Z" fill="#452032"/>
<path d="M13.6912 10.1369L14.3383 10.1371V10.7771L13.6912 10.7772V10.1369Z" fill="#4A152F"/>
<path d="M13.0444 8.21675H13.6912V8.85693H13.0444V8.21675Z" fill="#452032"/>
<path d="M13.0444 8.85693H13.6912V9.49685H13.0444V8.85693Z" fill="#452032"/>
<path d="M13.6912 8.21675L14.3383 8.21664V8.85693H13.6912V8.21675Z" fill="#4A152F"/>
<path d="M13.6912 8.85693H14.3383V9.49696L13.6912 9.49685V8.85693Z" fill="#4A152F"/>
<path d="M13.0444 9.49685H13.6912V10.1369H13.0444V9.49685Z" fill="#452032"/>
<path d="M13.6912 9.49685L14.3383 9.49696V10.1371L13.6912 10.1369V9.49685Z" fill="#4A152F"/>
<path d="M13.0444 7.57646H13.6912V8.21675H13.0444V7.57646Z" fill="#452032"/>
<path d="M13.6912 7.57646L14.3383 7.57673V8.21664L13.6912 8.21675V7.57646Z" fill="#4A152F"/>
<path d="M13.0444 6.93654H13.6912V7.57646H13.0444V6.93654Z" fill="#452032"/>
<path d="M13.6912 6.93654H14.3383V7.57673L13.6912 7.57646V6.93654Z" fill="#4A152F"/>
<path d="M13.0444 6.29663H13.6912V6.93654H13.0444V6.29663Z" fill="#452032"/>
<path d="M13.6912 6.29663L14.3383 6.29614V6.93654H13.6912V6.29663Z" fill="#4A152F"/>
<path d="M13.0444 5.01604H13.6912V5.65622H13.0444V5.01604Z" fill="#452032"/>
<path d="M13.0444 5.65622H13.6912V6.29663H13.0444V5.65622Z" fill="#452032"/>
<path d="M13.6912 5.01604L14.3383 5.01593V5.65622H13.6912V5.01604Z" fill="#4A152F"/>
<path d="M13.6912 5.65622H14.3383V6.29614L13.6912 6.29663V5.65622Z" fill="#4A152F"/>
<path d="M13.0444 4.37575H13.6912V5.01604H13.0444V4.37575Z" fill="#452032"/>
<path d="M13.6912 4.37575H14.3383V5.01593L13.6912 5.01604V4.37575Z" fill="#4A152F"/>
<path d="M13.0444 3.73534H13.6912V4.37575H13.0444V3.73534Z" fill="#452032"/>
<path d="M13.6912 3.73534H14.3383V4.37575H13.6912V3.73534Z" fill="#4A152F"/>
<path d="M24.6869 0.534743L24.6869 1.17492H24.0401V0.534743L24.6869 0.534743Z" fill="#452032"/>
<path d="M24.6869 1.17492L24.6868 1.81488H24.0401L24.0401 1.17492H24.6869Z" fill="#4A152F"/>
<path d="M25.3338 0.534743V1.17492H24.6869L24.6869 0.534743H25.3338Z" fill="#452032"/>
<path d="M25.3338 1.17492L25.3337 1.81488H24.6868L24.6869 1.17492H25.3338Z" fill="#4A152F"/>
<path d="M25.9791 0.534743V1.17501L25.3323 1.17492V0.534743L25.9791 0.534743Z" fill="#452032"/>
<path d="M25.9791 1.17501V1.81488L25.3323 1.81519V1.17492L25.9791 1.17501Z" fill="#4A152F"/>
<path d="M16.2773 0.534743V1.17492L15.6305 1.17492V0.534743L16.2773 0.534743Z" fill="#452032"/>
<path d="M15.6305 0.534743V1.17492H14.9837V0.534743H15.6305Z" fill="#452032"/>
<path d="M16.2773 1.17492L16.2772 1.81495H15.6304L15.6305 1.17492L16.2773 1.17492Z" fill="#4A152F"/>
<path d="M15.6305 1.17492L15.6304 1.81495L14.9837 1.81522V1.17492H15.6305Z" fill="#4A152F"/>
<path d="M14.9851 0.534743L14.9851 1.17492L14.3381 1.17504L14.3383 0.534743L14.9851 0.534743Z" fill="#452032"/>
<path d="M14.9851 1.17492L14.9851 1.81495H14.3381V1.17504L14.9851 1.17492Z" fill="#4A152F"/>
<path d="M14.9851 1.81495V2.45513L14.3382 2.45525L14.3381 1.81495H14.9851Z" fill="#4A152F"/>
<path d="M16.9258 0.534743V1.17492L16.279 1.17492V0.534743L16.9258 0.534743Z" fill="#452032"/>
<path d="M16.9258 1.17492V1.81495L16.279 1.81522V1.17492L16.9258 1.17492Z" fill="#4A152F"/>
<path d="M17.5711 0.534743V1.17492L16.9243 1.17492V0.534743L17.5711 0.534743Z" fill="#452032"/>
<path d="M17.5711 1.17492V1.81495H16.9241L16.9243 1.17492L17.5711 1.17492Z" fill="#4A152F"/>
<path d="M19.5133 0.534743V1.17492L18.8665 1.17492V0.534743L19.5133 0.534743Z" fill="#452032"/>
<path d="M18.8649 0.534743V1.17492L18.2181 1.17492V0.534743L18.8649 0.534743Z" fill="#452032"/>
<path d="M19.5133 1.17492V1.81495L18.8665 1.81522V1.17492L19.5133 1.17492Z" fill="#4A152F"/>
<path d="M18.8649 1.17492L18.8648 1.81495H18.2179L18.2181 1.17492L18.8649 1.17492Z" fill="#4A152F"/>
<path d="M18.2181 0.534743V1.17492L17.5711 1.17492V0.534743L18.2181 0.534743Z" fill="#452032"/>
<path d="M18.2181 1.17492L18.2179 1.81495H17.5711V1.17492L18.2181 1.17492Z" fill="#4A152F"/>
<path d="M20.1587 0.534743L20.1587 1.17492L19.5119 1.17492V0.534743L20.1587 0.534743Z" fill="#452032"/>
<path d="M20.1587 1.17492L20.1587 1.81495H19.5116L19.5119 1.17492L20.1587 1.17492Z" fill="#4A152F"/>
<path d="M20.8055 0.534743V1.17492H20.1587L20.1587 0.534743H20.8055Z" fill="#452032"/>
<path d="M20.8055 1.17492L20.8054 1.81495H20.1587L20.1587 1.17492H20.8055Z" fill="#4A152F"/>
<path d="M21.454 0.534743V1.17492L20.8072 1.17492V0.534743L21.454 0.534743Z" fill="#452032"/>
<path d="M21.454 1.17492V1.81495L20.8072 1.81522V1.17492L21.454 1.17492Z" fill="#4A152F"/>
<path d="M22.7448 0.534743V1.17492H22.098V0.534743L22.7448 0.534743Z" fill="#452032"/>
<path d="M22.0995 0.534743V1.17492H21.4527V0.534743L22.0995 0.534743Z" fill="#452032"/>
<path d="M22.7448 1.17492V1.81488L22.098 1.81519V1.17492H22.7448Z" fill="#4A152F"/>
<path d="M22.0995 1.17492V1.81488L21.4523 1.81495L21.4527 1.17492H22.0995Z" fill="#4A152F"/>
<path d="M23.3917 0.534743V1.17492H22.7448V0.534743H23.3917Z" fill="#452032"/>
<path d="M23.3917 1.17492V1.81488H22.7448V1.17492H23.3917Z" fill="#4A152F"/>
<path d="M24.0401 0.534743V1.17492H23.3933V0.534743H24.0401Z" fill="#452032"/>
<path d="M24.0401 1.17492L24.0401 1.81488L23.3933 1.81519V1.17492H24.0401Z" fill="#4A152F"/>
<path d="M24.6868 13.3378L24.6869 13.9781H24.0401L24.04 13.3378H24.6868Z" fill="#4A152F"/>
<path d="M24.6869 13.9781V14.6181H24.0401V13.9781H24.6869Z" fill="#452032"/>
<path d="M25.3337 13.3378L25.3338 13.9781H24.6869L24.6868 13.3378H25.3337Z" fill="#4A152F"/>
<path d="M25.3338 13.9781V14.6181H24.6869V13.9781H25.3338Z" fill="#452032"/>
<path d="M25.9791 13.3378V13.9781H25.3323V13.338L25.9791 13.3378Z" fill="#4A152F"/>
<path d="M25.9791 13.9781L25.9791 14.6181H25.3323V13.9781H25.9791Z" fill="#452032"/>
<path d="M16.2773 13.3378V13.9781H15.6305V13.338L16.2773 13.3378Z" fill="#4A152F"/>
<path d="M15.632 13.3378V13.9781H14.9852L14.9851 13.3378H15.632Z" fill="#4A152F"/>
<path d="M16.2773 13.9781V14.6181H15.6305V13.9781H16.2773Z" fill="#452032"/>
<path d="M15.632 13.9781V14.6181H14.9852V13.9781H15.632Z" fill="#452032"/>
<path d="M14.9851 13.3378L14.9852 13.9781H14.3383L14.3381 13.3378H14.9851Z" fill="#4A152F"/>
<path d="M14.9852 13.9781V14.6181H14.3383V13.9781H14.9852Z" fill="#452032"/>
<path d="M14.3381 13.3378L14.3383 13.9781H13.6914L13.6912 13.3378H14.3381Z" fill="#452032"/>
<path d="M16.9258 13.3378V13.9781H16.279L16.2787 13.3378H16.9258Z" fill="#4A152F"/>
<path d="M16.9258 13.9781V14.6181H16.279V13.9781H16.9258Z" fill="#452032"/>
<path d="M17.5711 13.3378V13.9781H16.9243L16.9241 13.3378H17.5711Z" fill="#4A152F"/>
<path d="M17.5711 13.9781V14.6181H16.9243V13.9781H17.5711Z" fill="#452032"/>
<path d="M19.5133 13.3378V13.9781H18.8665V13.338L19.5133 13.3378Z" fill="#4A152F"/>
<path d="M18.8648 13.3378L18.8649 13.9781H18.2181L18.2179 13.3378H18.8648Z" fill="#4A152F"/>
<path d="M19.5133 13.9781V14.6181H18.8665V13.9781H19.5133Z" fill="#452032"/>
<path d="M18.8649 13.9781V14.6181H18.2181V13.9781H18.8649Z" fill="#452032"/>
<path d="M18.2179 13.3378L18.2181 13.9781H17.5711V13.3378H18.2179Z" fill="#4A152F"/>
<path d="M18.2181 13.9781V14.6181H17.5711V13.9781H18.2181Z" fill="#452032"/>
<path d="M20.1587 13.3378L20.1587 13.9781H19.5119L19.5116 13.3378H20.1587Z" fill="#4A152F"/>
<path d="M20.1587 13.9781V14.6181H19.5119V13.9781H20.1587Z" fill="#452032"/>
<path d="M20.8054 13.3378L20.8055 13.9781H20.1587L20.1587 13.3378H20.8054Z" fill="#4A152F"/>
<path d="M20.8055 13.9781V14.6181H20.1587V13.9781H20.8055Z" fill="#452032"/>
<path d="M21.454 13.3378V13.9781H20.8072V13.338L21.454 13.3378Z" fill="#4A152F"/>
<path d="M21.454 13.9781V14.6181H20.8072V13.9781H21.454Z" fill="#452032"/>
<path d="M22.7447 13.3378V13.9781H22.0979V13.338L22.7447 13.3378Z" fill="#4A152F"/>
<path d="M22.0993 13.3378V13.9781H21.4525L21.4523 13.3378H22.0993Z" fill="#4A152F"/>
<path d="M22.7447 13.9781V14.6181H22.0979V13.9781H22.7447Z" fill="#452032"/>
<path d="M22.0993 13.9781V14.6181H21.4525V13.9781H22.0993Z" fill="#452032"/>
<path d="M23.3914 13.3378L23.3916 13.9781H22.7447V13.3378H23.3914Z" fill="#4A152F"/>
<path d="M23.3916 13.9781V14.6181H22.7447V13.9781H23.3916Z" fill="#452032"/>
<path d="M24.04 13.3378L24.0401 13.9781H23.3932V13.338L24.04 13.3378Z" fill="#4A152F"/>
<path d="M24.0401 13.9781V14.6181H23.3932V13.9781H24.0401Z" fill="#452032"/>
<path d="M14.9851 3.73534H15.632V4.37575H14.9851V3.73534Z" fill="#E64D7D"/>
<path d="M14.9851 10.7771L14.9851 11.4175H14.3381L14.3383 10.7771H14.9851Z" fill="#F25F8C"/>
<path d="M14.9851 11.4175V12.0578H14.3383L14.3381 11.4175H14.9851Z" fill="#E54D7C"/>
<path d="M22.7463 3.73521H23.3916L23.3914 4.37575H22.7461H22.7447H22.0993L22.0995 3.73521H22.7448H22.7463Z" fill="white"/>
<path d="M24.0383 4.37575H23.3914V5.01604V5.65595H24.0383V5.01604V4.37575Z" fill="white"/>
<path d="M24.04 5.01604H24.6868V5.65595H24.04V5.01604Z" fill="white"/>
<path d="M24.6868 5.65595H24.04V6.29663V6.93654H24.6868V6.29663V5.65595Z" fill="white"/>
<path d="M23.3914 8.21675V8.85667H22.7461H22.7447H22.0993L21.4523 8.85693V8.21675V7.57646L21.4506 7.57672V8.85653H20.8038L20.1587 8.85667L20.1569 8.85653L19.5116 8.85667V8.21675V7.57646L19.5099 7.57672V8.85653L18.8649 8.85667L18.8631 8.85653L18.2179 8.85667H17.5711H16.9241V8.21675H16.2773V7.57646H15.632V6.93654H16.2773H16.2787H16.9241V7.57646H16.9258V6.93681H17.5725L18.2197 6.93654L18.8648 6.93654L18.8665 6.93654L19.5116 6.93654V7.57646H19.5133V6.93654H20.1601H20.8054L20.8072 6.93654L21.4523 6.93654H22.0993H22.7461L23.3932 6.93654L24.04 6.93654V7.57646H24.0383V8.21675H23.3914Z" fill="white"/>
<path d="M22.7461 8.85667H22.0993V9.49696H22.7461V8.85667Z" fill="white"/>
<path d="M21.4523 9.49696H22.0993V10.1369H21.4523V9.49696Z" fill="white"/>
<path d="M18.8631 10.777V10.1371L18.2179 10.1369V9.49696L18.8631 9.49694L18.8648 9.49696L19.5099 9.49694V10.777H18.8631Z" fill="white"/>
<path d="M19.5116 10.7771L20.1569 10.7771L20.1587 10.7771L20.8037 10.7771V11.4173L20.1587 11.4175L20.1569 11.4173L19.5116 11.4175V10.7771Z" fill="white"/>
<path d="M20.1569 9.49694L19.5116 9.49696V10.1369V10.7771L20.1569 10.7771L20.1587 10.7771L20.8037 10.7771V9.49694L20.1587 9.49696L20.1569 9.49694Z" fill="white"/>
<path d="M21.4506 10.777V9.49694H20.8037V10.7771L21.4506 10.777Z" fill="white"/>
<path d="M22.0995 3.73521L21.4523 3.73534V4.37575H22.0993L22.0995 3.73521Z" fill="white"/>
<path d="M21.4523 4.37575H22.0993V5.01604V5.65595H21.4523V5.01604V4.37575Z" fill="white"/>
<path d="M21.4506 4.37611H20.8038V5.01602V5.6562H21.4506V4.37611Z" fill="white"/>
<path d="M20.1587 5.01604L20.8038 5.01602V5.6562L20.1587 5.65595L20.1569 5.6562L19.5116 5.65595V5.01604L20.1569 5.01602L20.1587 5.01604Z" fill="white"/>
<path d="M22.0993 5.01604V5.65595H22.7447H22.7461H23.3914V5.01604V4.37575H22.7461H22.7447H22.0993V5.01604Z" fill="white"/>
<path d="M23.3914 5.65595H24.0383V6.29663V6.93654H23.3914V6.29663V5.65595Z" fill="white"/>
<path d="M23.3914 6.29663V6.93654H22.7461H22.7447H22.0993V6.29663V5.65595H22.7447H22.7461H23.3914V6.29663Z" fill="white"/>
<path d="M21.4523 5.65595H22.0993V6.29663V6.93654H21.4523V6.29663V5.65595Z" fill="white"/>
<path d="M21.4506 5.6562H20.8038L20.1587 5.65595L20.1569 5.6562L19.5116 5.65595V6.29663L19.5099 6.29624V5.65631L18.8648 5.65595L18.8631 5.65631L18.2179 5.65595H17.5711H16.9241H16.2773L15.6302 5.65631L15.6304 6.93642L16.2773 6.93654H16.9241V6.29663H16.9258V6.93681H17.5725L18.218 6.93654L18.2197 6.93654L18.8648 6.93654H19.5116V6.29663H19.5133V6.93654H20.1587H20.1601L20.804 6.93642L20.8054 6.93654L21.4508 6.93642L21.4506 5.6562Z" fill="white"/>
<path d="M18.8631 8.85653L18.2179 8.85667V9.49696L18.8631 9.49694L18.8648 9.49696L19.5099 9.49694V8.85653L18.8649 8.85667L18.8631 8.85653Z" fill="white"/>
<path d="M20.1569 8.85653L19.5116 8.85667V9.49696L20.1569 9.49694L20.1587 9.49696L20.8037 9.49694L20.8038 8.85653L20.1587 8.85667L20.1569 8.85653Z" fill="white"/>
<path d="M20.8038 8.85653H21.4506V9.49694H20.8037L20.8038 8.85653Z" fill="white"/>
<path d="M21.4523 8.85693L22.0993 8.85667V9.49696H21.4523V8.85693Z" fill="white"/>
<path d="M19.5099 4.37611L18.8648 4.37575L18.8631 4.37611L18.2179 4.37563V5.01604V5.65595L18.8631 5.65631L18.8648 5.65595L19.5099 5.65631V4.37611Z" fill="white"/>
<path d="M18.2179 3.73534H17.5711V4.37563H18.2179V3.73534Z" fill="white"/>
<path d="M18.2179 3.73534H18.8648V4.37575L18.2179 4.37563V3.73534Z" fill="white"/>
<path d="M17.5711 3.73534H16.9241V4.37575L17.5711 4.37563V3.73534Z" fill="white"/>
<path d="M16.2773 4.37575H16.9241V5.01604V5.65595H16.2773V5.01604V4.37575Z" fill="white"/>
<path d="M15.6302 5.01602L16.2773 5.01604V5.65595L15.6302 5.65631V5.01602Z" fill="white"/>
<path d="M16.9241 5.65595V5.01604V4.37575L17.5711 4.37563V5.01604V5.65595H16.9241Z" fill="white"/>
<path d="M17.5711 5.01604V5.65595H18.2179V5.01604V4.37563H17.5711V5.01604Z" fill="white"/>
<path d="M18.2179 8.85667H17.5711V9.49696H18.2179V8.85667Z" fill="white"/>
<path d="M24.6885 6.93654H24.0418V7.57672H24.6885V6.93654Z" fill="white"/>
<path d="M8.59975 5.83317C8.43302 4.53899 7.49407 3.72252 6.07248 3.73121C4.20335 3.72252 3.05379 5.1383 3.05379 7.5877C3.05379 10.124 4.22967 11.4442 6.05493 11.4442C7.42386 11.4442 8.37159 10.7146 8.59975 9.4812L11.6184 9.49858C11.3815 11.7395 9.44217 14.0499 6.00227 14.0499C2.56237 14.0499 0 11.7221 0 7.5877C0 3.43589 2.61503 1.12547 6.00227 1.12547C9.04729 1.12547 11.3025 2.83657 11.6184 5.83317H8.59975Z" fill="#1A1A1A"/>
<path d="M28.7365 1.29918H32.4396L35.7216 9.22063H35.862L39.1439 1.29918H42.8471V13.8762H39.9337V6.059H39.8284L36.7395 13.8067H34.8441L31.7552 6.02426H31.6499V13.8762H28.7365V1.29918Z" fill="#1A1A1A"/>
<path d="M47.0508 13.8762H43.8215L48.1389 1.29918H52.1053L56.4052 13.8762H53.1935L52.3335 11.1836H47.9108L47.0508 13.8762ZM48.6303 8.92531H51.6139L50.1748 4.4087H50.0695L48.6303 8.92531Z" fill="#1A1A1A"/>
<path d="M62.1007 4.44344V6.59752H60.3632V10.923C60.372 11.5137 60.6703 11.6961 61.1705 11.7048C61.4162 11.7221 61.8901 11.6961 62.2236 11.67V13.911C61.934 13.9544 61.4426 14.0065 60.7493 14.0152C58.652 14.0065 57.3972 13.1553 57.4147 11.2531V6.59752H56.1335V4.44344H57.4147V2.18513H60.3632V4.44344H62.1007Z" fill="#1A1A1A"/>
<path d="M67.5856 14.0499C64.5844 14.0499 62.7943 12.0696 62.7943 9.18589C62.7943 6.29352 64.602 4.32184 67.5856 4.32184C70.1918 4.32184 71.903 5.8158 71.9732 8.10885H69.2178C69.0862 7.15341 68.507 6.55409 67.6207 6.5454C66.5326 6.55409 65.8042 7.4661 65.813 9.15114C65.8042 10.8622 66.5238 11.7829 67.6207 11.7743C68.4719 11.7829 69.0862 11.2271 69.2178 10.2282H71.9732C71.8942 12.5299 70.2357 14.0499 67.5856 14.0499Z" fill="#1A1A1A"/>
<path d="M76.1067 8.47365V13.8762H73.1407V1.29918H76.0014V6.16323H76.1067C76.5455 5.00802 77.5459 4.32184 78.9674 4.32184C80.977 4.32184 82.2845 5.71157 82.2845 7.86565V13.8762H79.3185V8.42154C79.3272 7.36187 78.7568 6.72781 77.7565 6.71912C76.7736 6.72781 76.1067 7.37924 76.1067 8.47365Z" fill="#1A1A1A"/>
<path d="M83.7854 13.8762V4.44344H86.7514V13.8762H83.7854ZM83.7503 1.90719C83.7503 1.12547 84.4348 0.491402 85.2772 0.500088C86.1284 0.491402 86.8129 1.12547 86.8217 1.90719C86.8129 2.68891 86.1284 3.31429 85.2772 3.31429C84.4348 3.31429 83.7503 2.68891 83.7503 1.90719Z" fill="#1A1A1A"/>
<path d="M91.2535 8.47365V13.8762H88.2875V4.44344H91.0956V6.16323H91.2009C91.6308 5.02539 92.6926 4.32184 94.0967 4.32184C96.1062 4.32184 97.405 5.72894 97.3962 7.86565V13.8762H94.4477V8.42154C94.4477 7.36187 93.8685 6.72781 92.8857 6.71912C91.9029 6.72781 91.2535 7.37924 91.2535 8.47365Z" fill="#1A1A1A"/>
<path d="M103.32 17.6111C100.582 17.6111 98.941 16.3864 98.8093 14.5885H101.688C101.81 15.2746 102.469 15.5699 103.39 15.5613C104.461 15.5699 105.198 15.1183 105.198 13.8936V12.2259H105.092C104.733 13.0771 103.811 13.7459 102.39 13.7546C100.284 13.7459 98.5636 12.3215 98.5636 9.13377C98.5636 5.83317 100.363 4.32184 102.372 4.32184C103.899 4.32184 104.715 5.20779 105.075 6.059H105.163V4.44344H108.111V13.9283C108.111 16.3256 106.163 17.6111 103.32 17.6111ZM101.6 9.13377C101.6 10.6798 102.24 11.6005 103.39 11.6005C104.54 11.6005 105.207 10.6885 105.198 9.13377C105.207 7.5877 104.54 6.61489 103.39 6.61489C102.232 6.61489 101.6 7.61376 101.6 9.13377Z" fill="#1A1A1A"/>
</svg>
