<svg width="65" height="64" viewBox="0 0 65 64" fill="none" xmlns="http://www.w3.org/2000/svg">
<path d="M32.5 35.2C33.4067 35.2 34.1672 34.8928 34.7816 34.2784C35.3939 33.6661 35.7 32.9067 35.7 32V19.12C35.7 18.2133 35.3939 17.4667 34.7816 16.88C34.1672 16.2933 33.4067 16 32.5 16C31.5933 16 30.8339 16.3061 30.2216 16.9184C29.6072 17.5328 29.3 18.2933 29.3 19.2V32.08C29.3 32.9867 29.6072 33.7333 30.2216 34.32C30.8339 34.9067 31.5933 35.2 32.5 35.2ZM32.5 48C33.4067 48 34.1672 47.6928 34.7816 47.0784C35.3939 46.4661 35.7 45.7067 35.7 44.8C35.7 43.8933 35.3939 43.1328 34.7816 42.5184C34.1672 41.9061 33.4067 41.6 32.5 41.6C31.5933 41.6 30.8339 41.9061 30.2216 42.5184C29.6072 43.1328 29.3 43.8933 29.3 44.8C29.3 45.7067 29.6072 46.4661 30.2216 47.0784C30.8339 47.6928 31.5933 48 32.5 48ZM32.5 64C28.0733 64 23.9133 63.1595 20.02 61.4784C16.1267 59.7995 12.74 57.52 9.86 54.64C6.98 51.76 4.70053 48.3733 3.0216 44.48C1.34053 40.5867 0.5 36.4267 0.5 32C0.5 27.5733 1.34053 23.4133 3.0216 19.52C4.70053 15.6267 6.98 12.24 9.86 9.36C12.74 6.48 16.1267 4.19947 20.02 2.5184C23.9133 0.839467 28.0733 0 32.5 0C36.9267 0 41.0867 0.839467 44.98 2.5184C48.8733 4.19947 52.26 6.48 55.14 9.36C58.02 12.24 60.2995 15.6267 61.9784 19.52C63.6595 23.4133 64.5 27.5733 64.5 32C64.5 36.4267 63.6595 40.5867 61.9784 44.48C60.2995 48.3733 58.02 51.76 55.14 54.64C52.26 57.52 48.8733 59.7995 44.98 61.4784C41.0867 63.1595 36.9267 64 32.5 64Z" fill="#666666"/>
</svg>
