<svg width="20" height="20" viewBox="0 0 20 20" fill="none" xmlns="http://www.w3.org/2000/svg">
<path fill-rule="evenodd" clip-rule="evenodd" d="M15.2096 8.18182C15.2096 10.6911 15.7468 12.6122 16.1088 13.2912C16.2011 13.4638 16.2493 13.6598 16.25 13.8596C16.2507 14.0593 16.203 14.2557 16.1119 14.429C16.0208 14.6023 15.8894 14.7463 15.731 14.8466C15.5725 14.9468 15.3927 14.9997 15.2096 15H4.79109C4.60789 14.9999 4.42796 14.947 4.26946 14.8468C4.11095 14.7466 3.97946 14.6026 3.88827 14.4293C3.79707 14.256 3.74938 14.0596 3.75001 13.8597C3.75064 13.6599 3.79956 13.4638 3.89185 13.2912C4.25324 12.6122 4.79109 10.6918 4.79109 8.18182C4.79109 6.67491 5.33992 5.22971 6.31684 4.16417C7.29376 3.09862 8.61875 2.5 10.0003 2.5C11.3819 2.5 12.7069 3.09862 13.6838 4.16417C14.6607 5.22971 15.2096 6.67491 15.2096 8.18182ZM10.0055 17.5001C8.72626 17.5001 7.60936 16.8464 7.01179 15.8746H12.9992C12.4016 16.8464 11.2847 17.5001 10.0055 17.5001Z" fill="#808080"/>
</svg>
