<svg width="14" height="14" viewBox="0 0 14 14" fill="none" xmlns="http://www.w3.org/2000/svg">
<path d="M13.2882 11.9615C13.4644 12.1376 13.5633 12.3765 13.5633 12.6256C13.5633 12.8746 13.4644 13.1135 13.2882 13.2896C13.1121 13.4657 12.8733 13.5647 12.6242 13.5647C12.3751 13.5647 12.1362 13.4657 11.9601 13.2896L6.99997 8.3279L2.03825 13.2881C1.86213 13.4642 1.62326 13.5631 1.37419 13.5631C1.12511 13.5631 0.886243 13.4642 0.710122 13.2881C0.534002 13.1119 0.435059 12.8731 0.435059 12.624C0.435059 12.3749 0.534002 12.136 0.710122 11.9599L5.67184 6.99977L0.711685 2.03805C0.535564 1.86193 0.436621 1.62306 0.436621 1.37399C0.436621 1.12492 0.535564 0.886047 0.711685 0.709927C0.887805 0.533807 1.12668 0.434863 1.37575 0.434863C1.62482 0.434863 1.86369 0.533807 2.03981 0.709927L6.99997 5.67165L11.9617 0.709146C12.1378 0.533025 12.3767 0.434082 12.6257 0.434082C12.8748 0.434082 13.1137 0.533025 13.2898 0.709146C13.4659 0.885266 13.5649 1.12414 13.5649 1.37321C13.5649 1.62228 13.4659 1.86115 13.2898 2.03727L8.32809 6.99977L13.2882 11.9615Z" fill="#999999"/>
</svg>
