<svg width="34" height="35" viewBox="0 0 34 35" fill="none" xmlns="http://www.w3.org/2000/svg">
<path d="M17 0.625C13.6624 0.625 10.3998 1.6147 7.62476 3.46895C4.84968 5.3232 2.68677 7.95871 1.40954 11.0422C0.132312 14.1257 -0.20187 17.5187 0.449256 20.7921C1.10038 24.0656 2.70757 27.0724 5.06758 29.4324C7.42759 31.7924 10.4344 33.3996 13.7079 34.0508C16.9813 34.7019 20.3743 34.3677 23.4578 33.0905C26.5413 31.8132 29.1768 29.6503 31.0311 26.8752C32.8853 24.1002 33.875 20.8376 33.875 17.5C33.87 13.026 32.0906 8.73666 28.927 5.57305C25.7634 2.40945 21.474 0.629963 17 0.625ZM17 30.625C14.4041 30.625 11.8665 29.8552 9.70815 28.413C7.54975 26.9708 5.86749 24.921 4.87409 22.5227C3.88069 20.1244 3.62077 17.4854 4.1272 14.9394C4.63363 12.3934 5.88367 10.0548 7.71923 8.21922C9.5548 6.38366 11.8934 5.13362 14.4394 4.62719C16.9854 4.12076 19.6244 4.38068 22.0227 5.37408C24.421 6.36748 26.4709 8.04975 27.913 10.2081C29.3552 12.3665 30.125 14.9041 30.125 17.5C30.1213 20.9798 28.7373 24.3161 26.2767 26.7767C23.8161 29.2373 20.4798 30.6213 17 30.625ZM15.125 18.125V10C15.125 9.50272 15.3226 9.02581 15.6742 8.67417C16.0258 8.32254 16.5027 8.125 17 8.125C17.4973 8.125 17.9742 8.32254 18.3258 8.67417C18.6775 9.02581 18.875 9.50272 18.875 10V18.125C18.875 18.6223 18.6775 19.0992 18.3258 19.4508C17.9742 19.8025 17.4973 20 17 20C16.5027 20 16.0258 19.8025 15.6742 19.4508C15.3226 19.0992 15.125 18.6223 15.125 18.125ZM19.5 24.375C19.5 24.8695 19.3534 25.3528 19.0787 25.7639C18.804 26.175 18.4135 26.4955 17.9567 26.6847C17.4999 26.8739 16.9972 26.9234 16.5123 26.827C16.0273 26.7305 15.5819 26.4924 15.2322 26.1428C14.8826 25.7931 14.6445 25.3477 14.548 24.8627C14.4516 24.3778 14.5011 23.8751 14.6903 23.4183C14.8795 22.9615 15.2 22.571 15.6111 22.2963C16.0222 22.0216 16.5056 21.875 17 21.875C17.663 21.875 18.2989 22.1384 18.7678 22.6072C19.2366 23.0761 19.5 23.712 19.5 24.375Z" fill="#FF667C"/>
</svg>
